solid inletFuel
facet normal 0 0 1
  outer loop
    vertex 0.001800358888592452 0.001917187490118312 -0.05
    vertex 0.00263 0 -0.05
    vertex 0.002624810295766354 0.0001651390663620942 -0.05
  endloop
endfacet
facet normal 0 0 1
  outer loop
    vertex 0.001800358888592452 0.001917187490118312 -0.05
    vertex 0.002624810295766354 0.0001651390663620942 -0.05
    vertex 0.002609261664457077 0.0003296264042741202 -0.05
  endloop
endfacet
facet normal 0 0 1
  outer loop
    vertex 0.001800358888592452 0.001917187490118312 -0.05
    vertex 0.002609261664457077 0.0003296264042741202 -0.05
    vertex 0.002583415469416451 0.0004928128573604558 -0.05
  endloop
endfacet
facet normal 0 0 1
  outer loop
    vertex 0.001800358888592452 0.001917187490118312 -0.05
    vertex 0.002583415469416451 0.0004928128573604558 -0.05
    vertex 0.0025473737137683 0.0006540544032435681 -0.05
  endloop
endfacet
facet normal 0 0 1
  outer loop
    vertex 0.001800358888592452 0.001917187490118312 -0.05
    vertex 0.0025473737137683 0.0006540544032435681 -0.05
    vertex 0.002501278637856254 0.0008127146952061116 -0.05
  endloop
endfacet
facet normal 0 0 1
  outer loop
    vertex 0.001800358888592452 0.001917187490118312 -0.05
    vertex 0.002501278637856254 0.0008127146952061116 -0.05
    vertex 0.002445312157886101 0.0009681675735607029 -0.05
  endloop
endfacet
facet normal 0 0 1
  outer loop
    vertex 0.001800358888592452 0.001917187490118312 -0.05
    vertex 0.002445312157886101 0.0009681675735607029 -0.05
    vertex 0.002379695147985631 0.001119799536816141 -0.05
  endloop
endfacet
facet normal 0 0 1
  outer loop
    vertex 0.001800358888592452 0.001917187490118312 -0.05
    vertex 0.002379695147985631 0.001119799536816141 -0.05
    vertex 0.002304686568515361 0.001267012162887511 -0.05
  endloop
endfacet
facet normal 0 0 1
  outer loop
    vertex 0.001800358888592452 0.001917187490118312 -0.05
    vertex 0.002304686568515361 0.001267012162887511 -0.05
    vertex 0.0022205824440703 0.001409224470794761 -0.05
  endloop
endfacet
facet normal 0 0 1
  outer loop
    vertex 0.001800358888592452 0.001917187490118312 -0.05
    vertex 0.0022205824440703 0.001409224470794761 -0.05
    vertex 0.002127714695206112 0.001545875213529204 -0.05
  endloop
endfacet
facet normal 0 0 1
  outer loop
    vertex 0.001800358888592452 0.001917187490118312 -0.05
    vertex 0.002127714695206112 0.001545875213529204 -0.05
    vertex 0.002026449828500326 0.001676425093039054 -0.05
  endloop
endfacet
facet normal 0 0 1
  outer loop
    vertex 0.001800358888592452 0.001917187490118312 -0.05
    vertex 0.002026449828500326 0.001676425093039054 -0.05
    vertex 0.001917187490118313 0.001800358888592451 -0.05
  endloop
endfacet
facet normal 0 0 1
  outer loop
    vertex 0.001800358888592452 0.001917187490118312 -0.05
    vertex 0.001676425093039054 0.002026449828500325 -0.05
    vertex 0.001545875213529205 0.002127714695206111 -0.05
  endloop
endfacet
facet normal 0 0 1
  outer loop
    vertex 0.001800358888592452 0.001917187490118312 -0.05
    vertex 0.001545875213529205 0.002127714695206111 -0.05
    vertex 0.001409224470794761 0.002220582444070299 -0.05
  endloop
endfacet
facet normal 0 0 1
  outer loop
    vertex 0.001800358888592452 0.001917187490118312 -0.05
    vertex 0.001409224470794761 0.002220582444070299 -0.05
    vertex 0.001267012162887511 0.002304686568515361 -0.05
  endloop
endfacet
facet normal 0 0 1
  outer loop
    vertex 0.001800358888592452 0.001917187490118312 -0.05
    vertex 0.001267012162887511 0.002304686568515361 -0.05
    vertex 0.001119799536816141 0.002379695147985631 -0.05
  endloop
endfacet
facet normal 0 0 1
  outer loop
    vertex 0.001800358888592452 0.001917187490118312 -0.05
    vertex 0.001119799536816141 0.002379695147985631 -0.05
    vertex 0.0009681675735607028 0.002445312157886101 -0.05
  endloop
endfacet
facet normal 0 0 1
  outer loop
    vertex 0.001800358888592452 0.001917187490118312 -0.05
    vertex 0.0009681675735607028 0.002445312157886101 -0.05
    vertex 0.0008127146952061114 0.002501278637856254 -0.05
  endloop
endfacet
facet normal 0 0 1
  outer loop
    vertex 0.001800358888592452 0.001917187490118312 -0.05
    vertex 0.0008127146952061114 0.002501278637856254 -0.05
    vertex 0.0006540544032435675 0.0025473737137683 -0.05
  endloop
endfacet
facet normal 0 0 1
  outer loop
    vertex 0.001800358888592452 0.001917187490118312 -0.05
    vertex 0.0006540544032435675 0.0025473737137683 -0.05
    vertex 0.0004928128573604549 0.002583415469416451 -0.05
  endloop
endfacet
facet normal 0 0 1
  outer loop
    vertex 0.001800358888592452 0.001917187490118312 -0.05
    vertex 0.0004928128573604549 0.002583415469416451 -0.05
    vertex 0.000329626404274119 0.002609261664457077 -0.05
  endloop
endfacet
facet normal 0 0 1
  outer loop
    vertex 0.001800358888592452 0.001917187490118312 -0.05
    vertex 0.000329626404274119 0.002609261664457077 -0.05
    vertex 0.0001651390663620928 0.002624810295766354 -0.05
  endloop
endfacet
facet normal 0 0 1
  outer loop
    vertex 0.001800358888592452 0.001917187490118312 -0.05
    vertex 0.0001651390663620928 0.002624810295766354 -0.05
    vertex -1.590896197330854e-18 0.00263 -0.05
  endloop
endfacet
facet normal 0 0 1
  outer loop
    vertex 0.001800358888592452 0.001917187490118312 -0.05
    vertex -1.590896197330854e-18 0.00263 -0.05
    vertex -0.000165139066362096 0.002624810295766354 -0.05
  endloop
endfacet
facet normal 0 0 1
  outer loop
    vertex 0.001800358888592452 0.001917187490118312 -0.05
    vertex -0.000165139066362096 0.002624810295766354 -0.05
    vertex -0.0003296264042741222 0.002609261664457076 -0.05
  endloop
endfacet
facet normal 0 0 1
  outer loop
    vertex 0.001800358888592452 0.001917187490118312 -0.05
    vertex -0.0003296264042741222 0.002609261664457076 -0.05
    vertex -0.000492812857360458 0.002583415469416451 -0.05
  endloop
endfacet
facet normal 0 0 1
  outer loop
    vertex 0.001800358888592452 0.001917187490118312 -0.05
    vertex -0.000492812857360458 0.002583415469416451 -0.05
    vertex -0.0006540544032435705 0.002547373713768299 -0.05
  endloop
endfacet
facet normal 0 0 1
  outer loop
    vertex 0.001800358888592452 0.001917187490118312 -0.05
    vertex -0.0006540544032435705 0.002547373713768299 -0.05
    vertex -0.0008127146952061142 0.002501278637856253 -0.05
  endloop
endfacet
facet normal 0 0 1
  outer loop
    vertex 0.001800358888592452 0.001917187490118312 -0.05
    vertex -0.0008127146952061142 0.002501278637856253 -0.05
    vertex -0.0009681675735607058 0.0024453121578861 -0.05
  endloop
endfacet
facet normal 0 0 1
  outer loop
    vertex 0.001800358888592452 0.001917187490118312 -0.05
    vertex -0.0009681675735607058 0.0024453121578861 -0.05
    vertex -0.001119799536816144 0.00237969514798563 -0.05
  endloop
endfacet
facet normal 0 0 1
  outer loop
    vertex 0.001800358888592452 0.001917187490118312 -0.05
    vertex -0.001119799536816144 0.00237969514798563 -0.05
    vertex -0.001267012162887514 0.00230468656851536 -0.05
  endloop
endfacet
facet normal 0 0 1
  outer loop
    vertex 0.001800358888592452 0.001917187490118312 -0.05
    vertex -0.001267012162887514 0.00230468656851536 -0.05
    vertex -0.001409224470794764 0.002220582444070298 -0.05
  endloop
endfacet
facet normal 0 0 1
  outer loop
    vertex 0.001800358888592452 0.001917187490118312 -0.05
    vertex -0.001409224470794764 0.002220582444070298 -0.05
    vertex -0.001545875213529207 0.00212771469520611 -0.05
  endloop
endfacet
facet normal 0 0 1
  outer loop
    vertex 0.001800358888592452 0.001917187490118312 -0.05
    vertex -0.001545875213529207 0.00212771469520611 -0.05
    vertex -0.001676425093039057 0.002026449828500324 -0.05
  endloop
endfacet
facet normal 0 0 1
  outer loop
    vertex 0.001800358888592452 0.001917187490118312 -0.05
    vertex -0.001676425093039057 0.002026449828500324 -0.05
    vertex -0.001800358888592454 0.00191718749011831 -0.05
  endloop
endfacet
facet normal 0 0 1
  outer loop
    vertex 0.001800358888592452 0.001917187490118312 -0.05
    vertex -0.001800358888592454 0.00191718749011831 -0.05
    vertex -0.001917187490118315 0.001800358888592448 -0.05
  endloop
endfacet
facet normal 0 0 1
  outer loop
    vertex 0.001800358888592452 0.001917187490118312 -0.05
    vertex -0.001917187490118315 0.001800358888592448 -0.05
    vertex -0.002026449828500328 0.001676425093039051 -0.05
  endloop
endfacet
facet normal 0 0 1
  outer loop
    vertex 0.001800358888592452 0.001917187490118312 -0.05
    vertex -0.002026449828500328 0.001676425093039051 -0.05
    vertex -0.002127714695206114 0.001545875213529201 -0.05
  endloop
endfacet
facet normal 0 0 1
  outer loop
    vertex 0.001800358888592452 0.001917187490118312 -0.05
    vertex -0.002127714695206114 0.001545875213529201 -0.05
    vertex -0.002220582444070302 0.001409224470794757 -0.05
  endloop
endfacet
facet normal 0 0 1
  outer loop
    vertex 0.001800358888592452 0.001917187490118312 -0.05
    vertex -0.002220582444070302 0.001409224470794757 -0.05
    vertex -0.002304686568515363 0.001267012162887507 -0.05
  endloop
endfacet
facet normal 0 0 1
  outer loop
    vertex 0.001800358888592452 0.001917187490118312 -0.05
    vertex -0.002304686568515363 0.001267012162887507 -0.05
    vertex -0.002379695147985634 0.001119799536816136 -0.05
  endloop
endfacet
facet normal 0 0 1
  outer loop
    vertex 0.001800358888592452 0.001917187490118312 -0.05
    vertex -0.002379695147985634 0.001119799536816136 -0.05
    vertex -0.002445312157886103 0.0009681675735606981 -0.05
  endloop
endfacet
facet normal 0 0 1
  outer loop
    vertex 0.001800358888592452 0.001917187490118312 -0.05
    vertex -0.002445312157886103 0.0009681675735606981 -0.05
    vertex -0.002501278637856256 0.0008127146952061064 -0.05
  endloop
endfacet
facet normal 0 0 1
  outer loop
    vertex 0.001800358888592452 0.001917187490118312 -0.05
    vertex -0.002501278637856256 0.0008127146952061064 -0.05
    vertex -0.002547373713768301 0.0006540544032435625 -0.05
  endloop
endfacet
facet normal 0 0 1
  outer loop
    vertex 0.001800358888592452 0.001917187490118312 -0.05
    vertex -0.002547373713768301 0.0006540544032435625 -0.05
    vertex -0.002583415469416452 0.0004928128573604498 -0.05
  endloop
endfacet
facet normal 0 0 1
  outer loop
    vertex 0.001800358888592452 0.001917187490118312 -0.05
    vertex -0.002583415469416452 0.0004928128573604498 -0.05
    vertex -0.002609261664457077 0.000329626404274114 -0.05
  endloop
endfacet
facet normal 0 0 1
  outer loop
    vertex 0.001800358888592452 0.001917187490118312 -0.05
    vertex -0.002609261664457077 0.000329626404274114 -0.05
    vertex -0.002624810295766355 0.0001651390663620877 -0.05
  endloop
endfacet
facet normal 0 0 1
  outer loop
    vertex 0.001800358888592452 0.001917187490118312 -0.05
    vertex -0.002624810295766355 0.0001651390663620877 -0.05
    vertex -0.00263 -6.685656260378702e-18 -0.05
  endloop
endfacet
facet normal 0 0 1
  outer loop
    vertex 0.001800358888592452 0.001917187490118312 -0.05
    vertex -0.00263 -6.685656260378702e-18 -0.05
    vertex -0.002624810295766354 -0.0001651390663621011 -0.05
  endloop
endfacet
facet normal 0 0 1
  outer loop
    vertex 0.001800358888592452 0.001917187490118312 -0.05
    vertex -0.002624810295766354 -0.0001651390663621011 -0.05
    vertex -0.002609261664457076 -0.0003296264042741273 -0.05
  endloop
endfacet
facet normal 0 0 1
  outer loop
    vertex 0.001800358888592452 0.001917187490118312 -0.05
    vertex -0.002609261664457076 -0.0003296264042741273 -0.05
    vertex -0.00258341546941645 -0.000492812857360463 -0.05
  endloop
endfacet
facet normal 0 0 1
  outer loop
    vertex 0.001800358888592452 0.001917187490118312 -0.05
    vertex -0.00258341546941645 -0.000492812857360463 -0.05
    vertex -0.002547373713768298 -0.0006540544032435755 -0.05
  endloop
endfacet
facet normal 0 0 1
  outer loop
    vertex 0.001800358888592452 0.001917187490118312 -0.05
    vertex -0.002547373713768298 -0.0006540544032435755 -0.05
    vertex -0.002501278637856251 -0.0008127146952061191 -0.05
  endloop
endfacet
facet normal 0 0 1
  outer loop
    vertex 0.001800358888592452 0.001917187490118312 -0.05
    vertex -0.002501278637856251 -0.0008127146952061191 -0.05
    vertex -0.002445312157886098 -0.0009681675735607105 -0.05
  endloop
endfacet
facet normal 0 0 1
  outer loop
    vertex 0.001800358888592452 0.001917187490118312 -0.05
    vertex -0.002445312157886098 -0.0009681675735607105 -0.05
    vertex -0.002379695147985627 -0.001119799536816148 -0.05
  endloop
endfacet
facet normal 0 0 1
  outer loop
    vertex 0.001800358888592452 0.001917187490118312 -0.05
    vertex -0.002379695147985627 -0.001119799536816148 -0.05
    vertex -0.002304686568515357 -0.001267012162887519 -0.05
  endloop
endfacet
facet normal 0 0 1
  outer loop
    vertex 0.001800358888592452 0.001917187490118312 -0.05
    vertex -0.002304686568515357 -0.001267012162887519 -0.05
    vertex -0.002220582444070295 -0.001409224470794769 -0.05
  endloop
endfacet
facet normal 0 0 1
  outer loop
    vertex 0.001800358888592452 0.001917187490118312 -0.05
    vertex -0.002220582444070295 -0.001409224470794769 -0.05
    vertex -0.002127714695206106 -0.001545875213529212 -0.05
  endloop
endfacet
facet normal 0 0 1
  outer loop
    vertex 0.001800358888592452 0.001917187490118312 -0.05
    vertex -0.002127714695206106 -0.001545875213529212 -0.05
    vertex -0.00202644982850032 -0.001676425093039061 -0.05
  endloop
endfacet
facet normal 0 0 1
  outer loop
    vertex 0.001800358888592452 0.001917187490118312 -0.05
    vertex -0.00202644982850032 -0.001676425093039061 -0.05
    vertex -0.001917187490118306 -0.001800358888592458 -0.05
  endloop
endfacet
facet normal 0 0 1
  outer loop
    vertex 0.001800358888592452 0.001917187490118312 -0.05
    vertex -0.001917187490118306 -0.001800358888592458 -0.05
    vertex -0.001800358888592444 -0.001917187490118319 -0.05
  endloop
endfacet
facet normal 0 0 1
  outer loop
    vertex 0.001800358888592452 0.001917187490118312 -0.05
    vertex -0.001800358888592444 -0.001917187490118319 -0.05
    vertex -0.001676425093039046 -0.002026449828500332 -0.05
  endloop
endfacet
facet normal 0 0 1
  outer loop
    vertex 0.001800358888592452 0.001917187490118312 -0.05
    vertex -0.001676425093039046 -0.002026449828500332 -0.05
    vertex -0.001545875213529197 -0.002127714695206117 -0.05
  endloop
endfacet
facet normal 0 0 1
  outer loop
    vertex 0.001800358888592452 0.001917187490118312 -0.05
    vertex -0.001545875213529197 -0.002127714695206117 -0.05
    vertex -0.001409224470794754 -0.002220582444070304 -0.05
  endloop
endfacet
facet normal 0 0 1
  outer loop
    vertex 0.001800358888592452 0.001917187490118312 -0.05
    vertex -0.001409224470794754 -0.002220582444070304 -0.05
    vertex -0.001267012162887505 -0.002304686568515365 -0.05
  endloop
endfacet
facet normal 0 0 1
  outer loop
    vertex 0.001800358888592452 0.001917187490118312 -0.05
    vertex -0.001267012162887505 -0.002304686568515365 -0.05
    vertex -0.001119799536816135 -0.002379695147985634 -0.05
  endloop
endfacet
facet normal 0 0 1
  outer loop
    vertex 0.001800358888592452 0.001917187490118312 -0.05
    vertex -0.001119799536816135 -0.002379695147985634 -0.05
    vertex -0.0009681675735606982 -0.002445312157886103 -0.05
  endloop
endfacet
facet normal 0 0 1
  outer loop
    vertex 0.001800358888592452 0.001917187490118312 -0.05
    vertex -0.0009681675735606982 -0.002445312157886103 -0.05
    vertex -0.0008127146952061077 -0.002501278637856255 -0.05
  endloop
endfacet
facet normal 0 0 1
  outer loop
    vertex 0.001800358888592452 0.001917187490118312 -0.05
    vertex -0.0008127146952061077 -0.002501278637856255 -0.05
    vertex -0.0006540544032435649 -0.0025473737137683 -0.05
  endloop
endfacet
facet normal 0 0 1
  outer loop
    vertex 0.001800358888592452 0.001917187490118312 -0.05
    vertex -0.0006540544032435649 -0.0025473737137683 -0.05
    vertex -0.0004928128573604535 -0.002583415469416451 -0.05
  endloop
endfacet
facet normal 0 0 1
  outer loop
    vertex 0.001800358888592452 0.001917187490118312 -0.05
    vertex -0.0004928128573604535 -0.002583415469416451 -0.05
    vertex -0.0003296264042741188 -0.002609261664457077 -0.05
  endloop
endfacet
facet normal 0 0 1
  outer loop
    vertex 0.001800358888592452 0.001917187490118312 -0.05
    vertex -0.0003296264042741188 -0.002609261664457077 -0.05
    vertex -0.0001651390663620937 -0.002624810295766354 -0.05
  endloop
endfacet
facet normal 0 0 1
  outer loop
    vertex 0.001800358888592452 0.001917187490118312 -0.05
    vertex -0.0001651390663620937 -0.002624810295766354 -0.05
    vertex -4.831072065829278e-19 -0.00263 -0.05
  endloop
endfacet
facet normal 0 0 1
  outer loop
    vertex 0.001800358888592452 0.001917187490118312 -0.05
    vertex -4.831072065829278e-19 -0.00263 -0.05
    vertex 0.0001651390663620927 -0.002624810295766354 -0.05
  endloop
endfacet
facet normal 0 0 1
  outer loop
    vertex 0.001800358888592452 0.001917187490118312 -0.05
    vertex 0.0001651390663620927 -0.002624810295766354 -0.05
    vertex 0.0003296264042741178 -0.002609261664457077 -0.05
  endloop
endfacet
facet normal 0 0 1
  outer loop
    vertex 0.001800358888592452 0.001917187490118312 -0.05
    vertex 0.0003296264042741178 -0.002609261664457077 -0.05
    vertex 0.0004928128573604525 -0.002583415469416452 -0.05
  endloop
endfacet
facet normal 0 0 1
  outer loop
    vertex 0.001800358888592452 0.001917187490118312 -0.05
    vertex 0.0004928128573604525 -0.002583415469416452 -0.05
    vertex 0.0006540544032435639 -0.002547373713768301 -0.05
  endloop
endfacet
facet normal 0 0 1
  outer loop
    vertex 0.001800358888592452 0.001917187490118312 -0.05
    vertex 0.0006540544032435639 -0.002547373713768301 -0.05
    vertex 0.0008127146952061068 -0.002501278637856256 -0.05
  endloop
endfacet
facet normal 0 0 1
  outer loop
    vertex 0.001800358888592452 0.001917187490118312 -0.05
    vertex 0.0008127146952061068 -0.002501278637856256 -0.05
    vertex 0.0009681675735606973 -0.002445312157886103 -0.05
  endloop
endfacet
facet normal 0 0 1
  outer loop
    vertex 0.001800358888592452 0.001917187490118312 -0.05
    vertex 0.0009681675735606973 -0.002445312157886103 -0.05
    vertex 0.001119799536816135 -0.002379695147985634 -0.05
  endloop
endfacet
facet normal 0 0 1
  outer loop
    vertex 0.001800358888592452 0.001917187490118312 -0.05
    vertex 0.001119799536816135 -0.002379695147985634 -0.05
    vertex 0.001267012162887504 -0.002304686568515365 -0.05
  endloop
endfacet
facet normal 0 0 1
  outer loop
    vertex 0.001800358888592452 0.001917187490118312 -0.05
    vertex 0.001267012162887504 -0.002304686568515365 -0.05
    vertex 0.001409224470794754 -0.002220582444070304 -0.05
  endloop
endfacet
facet normal 0 0 1
  outer loop
    vertex 0.001800358888592452 0.001917187490118312 -0.05
    vertex 0.001409224470794754 -0.002220582444070304 -0.05
    vertex 0.001545875213529196 -0.002127714695206118 -0.05
  endloop
endfacet
facet normal 0 0 1
  outer loop
    vertex 0.001800358888592452 0.001917187490118312 -0.05
    vertex 0.001545875213529196 -0.002127714695206118 -0.05
    vertex 0.001676425093039045 -0.002026449828500333 -0.05
  endloop
endfacet
facet normal 0 0 1
  outer loop
    vertex 0.001800358888592452 0.001917187490118312 -0.05
    vertex 0.001676425093039045 -0.002026449828500333 -0.05
    vertex 0.001800358888592443 -0.00191718749011832 -0.05
  endloop
endfacet
facet normal 0 0 1
  outer loop
    vertex 0.001800358888592452 0.001917187490118312 -0.05
    vertex 0.001800358888592443 -0.00191718749011832 -0.05
    vertex 0.001917187490118304 -0.00180035888859246 -0.05
  endloop
endfacet
facet normal 0 0 1
  outer loop
    vertex 0.001800358888592452 0.001917187490118312 -0.05
    vertex 0.001917187490118304 -0.00180035888859246 -0.05
    vertex 0.002026449828500317 -0.001676425093039065 -0.05
  endloop
endfacet
facet normal 0 0 1
  outer loop
    vertex 0.001800358888592452 0.001917187490118312 -0.05
    vertex 0.002026449828500317 -0.001676425093039065 -0.05
    vertex 0.002127714695206103 -0.001545875213529216 -0.05
  endloop
endfacet
facet normal 0 0 1
  outer loop
    vertex 0.001800358888592452 0.001917187490118312 -0.05
    vertex 0.002127714695206103 -0.001545875213529216 -0.05
    vertex 0.002220582444070291 -0.001409224470794774 -0.05
  endloop
endfacet
facet normal 0 0 1
  outer loop
    vertex 0.001800358888592452 0.001917187490118312 -0.05
    vertex 0.002220582444070291 -0.001409224470794774 -0.05
    vertex 0.002304686568515354 -0.001267012162887526 -0.05
  endloop
endfacet
facet normal 0 0 1
  outer loop
    vertex 0.001800358888592452 0.001917187490118312 -0.05
    vertex 0.002304686568515354 -0.001267012162887526 -0.05
    vertex 0.002379695147985624 -0.001119799536816157 -0.05
  endloop
endfacet
facet normal 0 0 1
  outer loop
    vertex 0.001800358888592452 0.001917187490118312 -0.05
    vertex 0.002379695147985624 -0.001119799536816157 -0.05
    vertex 0.002445312157886094 -0.0009681675735607201 -0.05
  endloop
endfacet
facet normal 0 0 1
  outer loop
    vertex 0.001800358888592452 0.001917187490118312 -0.05
    vertex 0.002445312157886094 -0.0009681675735607201 -0.05
    vertex 0.002501278637856248 -0.00081271469520613 -0.05
  endloop
endfacet
facet normal 0 0 1
  outer loop
    vertex 0.001800358888592452 0.001917187490118312 -0.05
    vertex 0.002501278637856248 -0.00081271469520613 -0.05
    vertex 0.002547373713768295 -0.0006540544032435877 -0.05
  endloop
endfacet
facet normal 0 0 1
  outer loop
    vertex 0.001800358888592452 0.001917187490118312 -0.05
    vertex 0.002547373713768295 -0.0006540544032435877 -0.05
    vertex 0.002583415469416447 -0.0004928128573604766 -0.05
  endloop
endfacet
facet normal 0 0 1
  outer loop
    vertex 0.001800358888592452 0.001917187490118312 -0.05
    vertex 0.002583415469416447 -0.0004928128573604766 -0.05
    vertex 0.002609261664457074 -0.0003296264042741421 -0.05
  endloop
endfacet
facet normal 0 0 1
  outer loop
    vertex 0.001800358888592452 0.001917187490118312 -0.05
    vertex 0.002609261664457074 -0.0003296264042741421 -0.05
    vertex 0.002624810295766353 -0.0001651390663621172 -0.05
  endloop
endfacet
facet normal 0 0 1
  outer loop
    vertex 0.001800358888592452 0.001917187490118312 -0.05
    vertex 0.002624810295766353 -0.0001651390663621172 -0.05
    vertex 0.00263 0 -0.05
  endloop
endfacet
endsolid inletFuel
