solid pipeEndWall
facet normal 0 0 1
  outer loop
    vertex 0.004420292628279092 -0.0008432159156357964 2.081668171172169e-17
    vertex 0.002549522699420439 -0.0006456268311802997 2.081668171172169e-17
    vertex 0.004358624225078831 -0.00111910449224188 2.081668171172169e-17
  endloop
endfacet
facet normal 0 0 1
  outer loop
    vertex 0.004420292628279092 -0.0008432159156357964 2.081668171172169e-17
    vertex 0.00259413022794916 -0.0004328837724383273 2.081668171172169e-17
    vertex 0.002549522699420439 -0.0006456268311802997 2.081668171172169e-17
  endloop
endfacet
facet normal 0 0 1
  outer loop
    vertex -0.0008432159156357646 0.004420292628279098 2.081668171172169e-17
    vertex -0.0006456268311803017 0.002549522699420439 2.081668171172169e-17
    vertex -0.00043288377243833 0.00259413022794916 2.081668171172169e-17
  endloop
endfacet
facet normal 0 0 1
  outer loop
    vertex -0.0008432159156357646 0.004420292628279098 2.081668171172169e-17
    vertex -0.001119104492241851 0.004358624225078839 2.081668171172169e-17
    vertex -0.0006456268311803017 0.002549522699420439 2.081668171172169e-17
  endloop
endfacet
facet normal 0 0 1
  outer loop
    vertex -0.001781250533375708 -0.001934953885070327 2.081668171172169e-17
    vertex -0.003080461976679087 -0.003280358823396363 2.081668171172169e-17
    vertex -0.002868407953869091 -0.003467309592491062 2.081668171172169e-17
  endloop
endfacet
facet normal 0 0 1
  outer loop
    vertex -0.001934953885070345 -0.00178125053337569 2.081668171172169e-17
    vertex -0.003467309592491041 -0.002868407953869116 2.081668171172169e-17
    vertex -0.003280358823396341 -0.00308046197667911 2.081668171172169e-17
  endloop
endfacet
facet normal 0 0 1
  outer loop
    vertex -0.001934953885070345 -0.00178125053337569 2.081668171172169e-17
    vertex -0.003280358823396341 -0.00308046197667911 2.081668171172169e-17
    vertex -0.003080461976679087 -0.003280358823396363 2.081668171172169e-17
  endloop
endfacet
facet normal 0 0 1
  outer loop
    vertex -0.001934953885070345 -0.00178125053337569 2.081668171172169e-17
    vertex -0.003080461976679087 -0.003280358823396363 2.081668171172169e-17
    vertex -0.001781250533375708 -0.001934953885070327 2.081668171172169e-17
  endloop
endfacet
facet normal 0 0 1
  outer loop
    vertex -0.001615379434373836 -0.002075439539712507 2.081668171172169e-17
    vertex -0.002868407953869091 -0.003467309592491062 2.081668171172169e-17
    vertex -0.002645033635316116 -0.003640576474687272 2.081668171172169e-17
  endloop
endfacet
facet normal 0 0 1
  outer loop
    vertex -0.001615379434373836 -0.002075439539712507 2.081668171172169e-17
    vertex -0.001781250533375708 -0.001934953885070327 2.081668171172169e-17
    vertex -0.002868407953869091 -0.003467309592491062 2.081668171172169e-17
  endloop
endfacet
facet normal 0 0 1
  outer loop
    vertex -0.002075439539712522 -0.001615379434373817 2.081668171172169e-17
    vertex -0.003640576474687254 -0.002645033635316141 2.081668171172169e-17
    vertex -0.003467309592491041 -0.002868407953869116 2.081668171172169e-17
  endloop
endfacet
facet normal 0 0 1
  outer loop
    vertex -0.002075439539712522 -0.001615379434373817 2.081668171172169e-17
    vertex -0.003467309592491041 -0.002868407953869116 2.081668171172169e-17
    vertex -0.001934953885070345 -0.00178125053337569 2.081668171172169e-17
  endloop
endfacet
facet normal 0 0 1
  outer loop
    vertex -0.001438473655861992 -0.002201747837830443 2.081668171172169e-17
    vertex -0.001615379434373836 -0.002075439539712507 2.081668171172169e-17
    vertex -0.002645033635316116 -0.003640576474687272 2.081668171172169e-17
  endloop
endfacet
facet normal 0 0 1
  outer loop
    vertex -0.001438473655861992 -0.002201747837830443 2.081668171172169e-17
    vertex -0.002645033635316116 -0.003640576474687272 2.081668171172169e-17
    vertex -0.002411220577405473 -0.003799475664759075 2.081668171172169e-17
  endloop
endfacet
facet normal 0 0 1
  outer loop
    vertex -0.002201747837830456 -0.001438473655861973 2.081668171172169e-17
    vertex -0.003640576474687254 -0.002645033635316141 2.081668171172169e-17
    vertex -0.002075439539712522 -0.001615379434373817 2.081668171172169e-17
  endloop
endfacet
facet normal 0 0 1
  outer loop
    vertex -0.002201747837830456 -0.001438473655861973 2.081668171172169e-17
    vertex -0.00379947566475906 -0.002411220577405497 2.081668171172169e-17
    vertex -0.003640576474687254 -0.002645033635316141 2.081668171172169e-17
  endloop
endfacet
facet normal 0 0 1
  outer loop
    vertex -0.001251741643687513 -0.002313015965673061 2.081668171172169e-17
    vertex -0.002411220577405473 -0.003799475664759075 2.081668171172169e-17
    vertex -0.002167891533457708 -0.003943380060197392 2.081668171172169e-17
  endloop
endfacet
facet normal 0 0 1
  outer loop
    vertex -0.001251741643687513 -0.002313015965673061 2.081668171172169e-17
    vertex -0.002167891533457708 -0.003943380060197392 2.081668171172169e-17
    vertex -0.001916006812042817 -0.004071721736097092 2.081668171172169e-17
  endloop
endfacet
facet normal 0 0 1
  outer loop
    vertex -0.001251741643687513 -0.002313015965673061 2.081668171172169e-17
    vertex -0.001438473655861992 -0.002201747837830443 2.081668171172169e-17
    vertex -0.002411220577405473 -0.003799475664759075 2.081668171172169e-17
  endloop
endfacet
facet normal 0 0 1
  outer loop
    vertex -0.002313015965673071 -0.001251741643687494 2.081668171172169e-17
    vertex -0.00379947566475906 -0.002411220577405497 2.081668171172169e-17
    vertex -0.002201747837830456 -0.001438473655861973 2.081668171172169e-17
  endloop
endfacet
facet normal 0 0 1
  outer loop
    vertex -0.002313015965673071 -0.001251741643687494 2.081668171172169e-17
    vertex -0.004071721736097081 -0.001916006812042839 2.081668171172169e-17
    vertex -0.003943380060197379 -0.002167891533457731 2.081668171172169e-17
  endloop
endfacet
facet normal 0 0 1
  outer loop
    vertex -0.002313015965673071 -0.001251741643687494 2.081668171172169e-17
    vertex -0.003943380060197379 -0.002167891533457731 2.081668171172169e-17
    vertex -0.00379947566475906 -0.002411220577405497 2.081668171172169e-17
  endloop
endfacet
facet normal 0 0 1
  outer loop
    vertex -0.001056458966837319 -0.002408483849102797 2.081668171172169e-17
    vertex -0.001251741643687513 -0.002313015965673061 2.081668171172169e-17
    vertex -0.001916006812042817 -0.004071721736097092 2.081668171172169e-17
  endloop
endfacet
facet normal 0 0 1
  outer loop
    vertex -0.001056458966837319 -0.002408483849102797 2.081668171172169e-17
    vertex -0.001916006812042817 -0.004071721736097092 2.081668171172169e-17
    vertex -0.001656560487081042 -0.004183994186497134 2.081668171172169e-17
  endloop
endfacet
facet normal 0 0 1
  outer loop
    vertex -0.002408483849102805 -0.0010564589668373 2.081668171172169e-17
    vertex -0.004183994186497126 -0.001656560487081063 2.081668171172169e-17
    vertex -0.004071721736097081 -0.001916006812042839 2.081668171172169e-17
  endloop
endfacet
facet normal 0 0 1
  outer loop
    vertex -0.002408483849102805 -0.0010564589668373 2.081668171172169e-17
    vertex -0.004071721736097081 -0.001916006812042839 2.081668171172169e-17
    vertex -0.002313015965673071 -0.001251741643687494 2.081668171172169e-17
  endloop
endfacet
facet normal 0 0 1
  outer loop
    vertex -0.0008539596040083269 -0.002487499345672666 2.081668171172169e-17
    vertex -0.001056458966837319 -0.002408483849102797 2.081668171172169e-17
    vertex -0.001656560487081042 -0.004183994186497134 2.081668171172169e-17
  endloop
endfacet
facet normal 0 0 1
  outer loop
    vertex 0.004464516155915145 -0.0005639995510394066 2.081668171172169e-17
    vertex 0.00259413022794916 -0.0004328837724383273 2.081668171172169e-17
    vertex 0.004420292628279092 -0.0008432159156357964 2.081668171172169e-17
  endloop
endfacet
facet normal 0 0 1
  outer loop
    vertex 0.004464516155915145 -0.0005639995510394066 2.081668171172169e-17
    vertex 0.002621017216607542 -0.0002171836785922306 2.081668171172169e-17
    vertex 0.00259413022794916 -0.0004328837724383273 2.081668171172169e-17
  endloop
endfacet
facet normal 0 0 1
  outer loop
    vertex -0.0008539596040083269 -0.002487499345672666 2.081668171172169e-17
    vertex -0.001656560487081042 -0.004183994186497134 2.081668171172169e-17
    vertex -0.001390576474687256 -0.004279754323328193 2.081668171172169e-17
  endloop
endfacet
facet normal 0 0 1
  outer loop
    vertex -0.002487499345672672 -0.0008539596040083086 2.081668171172169e-17
    vertex -0.004279754323328186 -0.001390576474687276 2.081668171172169e-17
    vertex -0.004183994186497126 -0.001656560487081063 2.081668171172169e-17
  endloop
endfacet
facet normal 0 0 1
  outer loop
    vertex -0.002487499345672672 -0.0008539596040083086 2.081668171172169e-17
    vertex -0.004183994186497126 -0.001656560487081063 2.081668171172169e-17
    vertex -0.002408483849102805 -0.0010564589668373 2.081668171172169e-17
  endloop
endfacet
facet normal 0 0 1
  outer loop
    vertex -0.0005639995510393725 0.00446451615591515 2.081668171172169e-17
    vertex -0.00043288377243833 0.00259413022794916 2.081668171172169e-17
    vertex -0.0002171836785922339 0.002621017216607542 2.081668171172169e-17
  endloop
endfacet
facet normal 0 0 1
  outer loop
    vertex -0.0005639995510393725 0.00446451615591515 2.081668171172169e-17
    vertex -0.0008432159156357646 0.004420292628279098 2.081668171172169e-17
    vertex -0.00043288377243833 0.00259413022794916 2.081668171172169e-17
  endloop
endfacet
facet normal 0 0 1
  outer loop
    vertex 0.004491120277927219 -0.0002825573378819496 2.081668171172169e-17
    vertex 0.002621017216607542 -0.0002171836785922306 2.081668171172169e-17
    vertex 0.004464516155915145 -0.0005639995510394066 2.081668171172169e-17
  endloop
endfacet
facet normal 0 0 1
  outer loop
    vertex 0.004491120277927219 -0.0002825573378819496 2.081668171172169e-17
    vertex 0.00263 0 2.081668171172169e-17
    vertex 0.002621017216607542 -0.0002171836785922306 2.081668171172169e-17
  endloop
endfacet
facet normal 0 0 1
  outer loop
    vertex -0.0006456268311803108 -0.002549522699420437 2.081668171172169e-17
    vertex -0.0008539596040083269 -0.002487499345672666 2.081668171172169e-17
    vertex -0.001390576474687256 -0.004279754323328193 2.081668171172169e-17
  endloop
endfacet
facet normal 0 0 1
  outer loop
    vertex -0.0006456268311803108 -0.002549522699420437 2.081668171172169e-17
    vertex -0.001390576474687256 -0.004279754323328193 2.081668171172169e-17
    vertex -0.001119104492241841 -0.004358624225078841 2.081668171172169e-17
  endloop
endfacet
facet normal 0 0 1
  outer loop
    vertex -0.0006456268311803108 -0.002549522699420437 2.081668171172169e-17
    vertex -0.001119104492241841 -0.004358624225078841 2.081668171172169e-17
    vertex -0.0008432159156357569 -0.004420292628279099 2.081668171172169e-17
  endloop
endfacet
facet normal 0 0 1
  outer loop
    vertex -0.0002825573378819133 0.004491120277927222 2.081668171172169e-17
    vertex -0.0002171836785922339 0.002621017216607542 2.081668171172169e-17
    vertex 1.610357355276426e-19 0.00263 2.081668171172169e-17
  endloop
endfacet
facet normal 0 0 1
  outer loop
    vertex -0.0002825573378819133 0.004491120277927222 2.081668171172169e-17
    vertex -0.0005639995510393725 0.00446451615591515 2.081668171172169e-17
    vertex -0.0002171836785922339 0.002621017216607542 2.081668171172169e-17
  endloop
endfacet
facet normal 0 0 1
  outer loop
    vertex -2.722065736877888e-18 0.0045 2.081668171172169e-17
    vertex -0.0002825573378819133 0.004491120277927222 2.081668171172169e-17
    vertex 1.610357355276426e-19 0.00263 2.081668171172169e-17
  endloop
endfacet
facet normal 0 0 1
  outer loop
    vertex -0.002549522699420441 -0.0006456268311802931 2.081668171172169e-17
    vertex -0.004420292628279096 -0.0008432159156357732 2.081668171172169e-17
    vertex -0.004358624225078837 -0.001119104492241859 2.081668171172169e-17
  endloop
endfacet
facet normal 0 0 1
  outer loop
    vertex -0.002549522699420441 -0.0006456268311802931 2.081668171172169e-17
    vertex -0.004358624225078837 -0.001119104492241859 2.081668171172169e-17
    vertex -0.004279754323328186 -0.001390576474687276 2.081668171172169e-17
  endloop
endfacet
facet normal 0 0 1
  outer loop
    vertex -0.002549522699420441 -0.0006456268311802931 2.081668171172169e-17
    vertex -0.004279754323328186 -0.001390576474687276 2.081668171172169e-17
    vertex -0.002487499345672672 -0.0008539596040083086 2.081668171172169e-17
  endloop
endfacet
facet normal 0 0 1
  outer loop
    vertex -0.0004328837724383387 -0.002594130227949158 2.081668171172169e-17
    vertex -0.0006456268311803108 -0.002549522699420437 2.081668171172169e-17
    vertex -0.0008432159156357569 -0.004420292628279099 2.081668171172169e-17
  endloop
endfacet
facet normal 0 0 1
  outer loop
    vertex 0.0045 -1.10214571844014e-18 2.081668171172169e-17
    vertex 0.00263 0 2.081668171172169e-17
    vertex 0.004491120277927219 -0.0002825573378819496 2.081668171172169e-17
  endloop
endfacet
facet normal 0 0 1
  outer loop
    vertex 0.0002825573378819078 0.004491120277927222 2.081668171172169e-17
    vertex 1.610357355276426e-19 0.00263 2.081668171172169e-17
    vertex 0.0002171836785922342 0.002621017216607542 2.081668171172169e-17
  endloop
endfacet
facet normal 0 0 1
  outer loop
    vertex 0.0002825573378819078 0.004491120277927222 2.081668171172169e-17
    vertex -2.722065736877888e-18 0.0045 2.081668171172169e-17
    vertex 1.610357355276426e-19 0.00263 2.081668171172169e-17
  endloop
endfacet
facet normal 0 0 1
  outer loop
    vertex 0.004491120277927222 0.0002825573378819102 2.081668171172169e-17
    vertex 0.002621017216607542 0.000217183678592234 2.081668171172169e-17
    vertex 0.00263 0 2.081668171172169e-17
  endloop
endfacet
facet normal 0 0 1
  outer loop
    vertex 0.004491120277927222 0.0002825573378819102 2.081668171172169e-17
    vertex 0.00263 0 2.081668171172169e-17
    vertex 0.0045 -1.10214571844014e-18 2.081668171172169e-17
  endloop
endfacet
facet normal 0 0 1
  outer loop
    vertex -0.0004328837724383387 -0.002594130227949158 2.081668171172169e-17
    vertex -0.0008432159156357569 -0.004420292628279099 2.081668171172169e-17
    vertex -0.0005639995510393667 -0.00446451615591515 2.081668171172169e-17
  endloop
endfacet
facet normal 0 0 1
  outer loop
    vertex -0.002594130227949161 -0.0004328837724383218 2.081668171172169e-17
    vertex -0.004464516155915149 -0.0005639995510393813 2.081668171172169e-17
    vertex -0.004420292628279096 -0.0008432159156357732 2.081668171172169e-17
  endloop
endfacet
facet normal 0 0 1
  outer loop
    vertex 0.0005639995510393672 0.00446451615591515 2.081668171172169e-17
    vertex 0.0002171836785922342 0.002621017216607542 2.081668171172169e-17
    vertex 0.0004328837724383304 0.00259413022794916 2.081668171172169e-17
  endloop
endfacet
facet normal 0 0 1
  outer loop
    vertex 0.0005639995510393672 0.00446451615591515 2.081668171172169e-17
    vertex 0.0002825573378819078 0.004491120277927222 2.081668171172169e-17
    vertex 0.0002171836785922342 0.002621017216607542 2.081668171172169e-17
  endloop
endfacet
facet normal 0 0 1
  outer loop
    vertex 0.00446451615591515 0.0005639995510393691 2.081668171172169e-17
    vertex 0.00259413022794916 0.0004328837724383302 2.081668171172169e-17
    vertex 0.002621017216607542 0.000217183678592234 2.081668171172169e-17
  endloop
endfacet
facet normal 0 0 1
  outer loop
    vertex 0.00446451615591515 0.0005639995510393691 2.081668171172169e-17
    vertex 0.002621017216607542 0.000217183678592234 2.081668171172169e-17
    vertex 0.004491120277927222 0.0002825573378819102 2.081668171172169e-17
  endloop
endfacet
facet normal 0 0 1
  outer loop
    vertex 0.0008432159156357593 0.004420292628279099 2.081668171172169e-17
    vertex 0.0005639995510393672 0.00446451615591515 2.081668171172169e-17
    vertex 0.0004328837724383304 0.00259413022794916 2.081668171172169e-17
  endloop
endfacet
facet normal 0 0 1
  outer loop
    vertex -0.002594130227949161 -0.0004328837724383218 2.081668171172169e-17
    vertex -0.004420292628279096 -0.0008432159156357732 2.081668171172169e-17
    vertex -0.002549522699420441 -0.0006456268311802931 2.081668171172169e-17
  endloop
endfacet
facet normal 0 0 1
  outer loop
    vertex -0.0002171836785922421 -0.002621017216607541 2.081668171172169e-17
    vertex -0.0004328837724383387 -0.002594130227949158 2.081668171172169e-17
    vertex -0.0005639995510393667 -0.00446451615591515 2.081668171172169e-17
  endloop
endfacet
facet normal 0 0 1
  outer loop
    vertex -0.0002171836785922421 -0.002621017216607541 2.081668171172169e-17
    vertex -0.0005639995510393667 -0.00446451615591515 2.081668171172169e-17
    vertex -0.0002825573378819094 -0.004491120277927222 2.081668171172169e-17
  endloop
endfacet
facet normal 0 0 1
  outer loop
    vertex 0.0008432159156357593 0.004420292628279099 2.081668171172169e-17
    vertex 0.0004328837724383304 0.00259413022794916 2.081668171172169e-17
    vertex 0.0006456268311803019 0.002549522699420439 2.081668171172169e-17
  endloop
endfacet
facet normal 0 0 1
  outer loop
    vertex 0.004420292628279099 0.0008432159156357608 2.081668171172169e-17
    vertex 0.002549522699420439 0.0006456268311803017 2.081668171172169e-17
    vertex 0.00259413022794916 0.0004328837724383302 2.081668171172169e-17
  endloop
endfacet
facet normal 0 0 1
  outer loop
    vertex 0.004420292628279099 0.0008432159156357608 2.081668171172169e-17
    vertex 0.00259413022794916 0.0004328837724383302 2.081668171172169e-17
    vertex 0.00446451615591515 0.0005639995510393691 2.081668171172169e-17
  endloop
endfacet
facet normal 0 0 1
  outer loop
    vertex 0.004358624225078839 0.001119104492241847 2.081668171172169e-17
    vertex 0.002549522699420439 0.0006456268311803017 2.081668171172169e-17
    vertex 0.004420292628279099 0.0008432159156357608 2.081668171172169e-17
  endloop
endfacet
facet normal 0 0 1
  outer loop
    vertex -0.002621017216607542 -0.0002171836785922262 2.081668171172169e-17
    vertex -0.004464516155915149 -0.0005639995510393813 2.081668171172169e-17
    vertex -0.002594130227949161 -0.0004328837724383218 2.081668171172169e-17
  endloop
endfacet
facet normal 0 0 1
  outer loop
    vertex -0.002621017216607542 -0.0002171836785922262 2.081668171172169e-17
    vertex -0.004491120277927222 -0.0002825573378819219 2.081668171172169e-17
    vertex -0.004464516155915149 -0.0005639995510393813 2.081668171172169e-17
  endloop
endfacet
facet normal 0 0 1
  outer loop
    vertex 0.001119104492241845 0.00435862422507884 2.081668171172169e-17
    vertex 0.0008432159156357593 0.004420292628279099 2.081668171172169e-17
    vertex 0.0006456268311803019 0.002549522699420439 2.081668171172169e-17
  endloop
endfacet
facet normal 0 0 1
  outer loop
    vertex 0.001390576474687263 0.004279754323328191 2.081668171172169e-17
    vertex 0.0006456268311803019 0.002549522699420439 2.081668171172169e-17
    vertex 0.0008539596040083178 0.002487499345672669 2.081668171172169e-17
  endloop
endfacet
facet normal 0 0 1
  outer loop
    vertex 0.001390576474687263 0.004279754323328191 2.081668171172169e-17
    vertex 0.001119104492241845 0.00435862422507884 2.081668171172169e-17
    vertex 0.0006456268311803019 0.002549522699420439 2.081668171172169e-17
  endloop
endfacet
facet normal 0 0 1
  outer loop
    vertex 0.004279754323328191 0.001390576474687263 2.081668171172169e-17
    vertex 0.002487499345672669 0.0008539596040083175 2.081668171172169e-17
    vertex 0.002549522699420439 0.0006456268311803017 2.081668171172169e-17
  endloop
endfacet
facet normal 0 0 1
  outer loop
    vertex 0.004279754323328191 0.001390576474687263 2.081668171172169e-17
    vertex 0.002549522699420439 0.0006456268311803017 2.081668171172169e-17
    vertex 0.004358624225078839 0.001119104492241847 2.081668171172169e-17
  endloop
endfacet
facet normal 0 0 1
  outer loop
    vertex -7.490834938016915e-18 -0.00263 2.081668171172169e-17
    vertex -0.0002171836785922421 -0.002621017216607541 2.081668171172169e-17
    vertex -0.0002825573378819094 -0.004491120277927222 2.081668171172169e-17
  endloop
endfacet
facet normal 0 0 1
  outer loop
    vertex -7.490834938016915e-18 -0.00263 2.081668171172169e-17
    vertex -0.0002825573378819094 -0.004491120277927222 2.081668171172169e-17
    vertex -8.266092888301046e-19 -0.0045 2.081668171172169e-17
  endloop
endfacet
facet normal 0 0 1
  outer loop
    vertex -7.490834938016915e-18 -0.00263 2.081668171172169e-17
    vertex -8.266092888301046e-19 -0.0045 2.081668171172169e-17
    vertex 0.0002825573378819077 -0.004491120277927222 2.081668171172169e-17
  endloop
endfacet
facet normal 0 0 1
  outer loop
    vertex -0.00263 7.329799202489273e-18 2.081668171172169e-17
    vertex -0.004491120277927222 -0.0002825573378819219 2.081668171172169e-17
    vertex -0.002621017216607542 -0.0002171836785922262 2.081668171172169e-17
  endloop
endfacet
facet normal 0 0 1
  outer loop
    vertex 0.004183994186497131 0.00165656048708105 2.081668171172169e-17
    vertex 0.002408483849102801 0.00105645896683731 2.081668171172169e-17
    vertex 0.002487499345672669 0.0008539596040083175 2.081668171172169e-17
  endloop
endfacet
facet normal 0 0 1
  outer loop
    vertex 0.004183994186497131 0.00165656048708105 2.081668171172169e-17
    vertex 0.002487499345672669 0.0008539596040083175 2.081668171172169e-17
    vertex 0.004279754323328191 0.001390576474687263 2.081668171172169e-17
  endloop
endfacet
facet normal 0 0 1
  outer loop
    vertex 0.00165656048708105 0.004183994186497131 2.081668171172169e-17
    vertex 0.0008539596040083178 0.002487499345672669 2.081668171172169e-17
    vertex 0.00105645896683731 0.002408483849102801 2.081668171172169e-17
  endloop
endfacet
facet normal 0 0 1
  outer loop
    vertex 0.00165656048708105 0.004183994186497131 2.081668171172169e-17
    vertex 0.001390576474687263 0.004279754323328191 2.081668171172169e-17
    vertex 0.0008539596040083178 0.002487499345672669 2.081668171172169e-17
  endloop
endfacet
facet normal 0 0 1
  outer loop
    vertex 0.004071721736097088 0.001916006812042826 2.081668171172169e-17
    vertex 0.002313015965673066 0.001251741643687503 2.081668171172169e-17
    vertex 0.002408483849102801 0.00105645896683731 2.081668171172169e-17
  endloop
endfacet
facet normal 0 0 1
  outer loop
    vertex -0.00263 7.329799202489273e-18 2.081668171172169e-17
    vertex -0.004491120277927222 0.0002825573378818992 2.081668171172169e-17
    vertex -0.0045 -1.143933580673162e-17 2.081668171172169e-17
  endloop
endfacet
facet normal 0 0 1
  outer loop
    vertex -0.00263 7.329799202489273e-18 2.081668171172169e-17
    vertex -0.0045 -1.143933580673162e-17 2.081668171172169e-17
    vertex -0.004491120277927222 -0.0002825573378819219 2.081668171172169e-17
  endloop
endfacet
facet normal 0 0 1
  outer loop
    vertex 0.0002171836785922271 -0.002621017216607542 2.081668171172169e-17
    vertex -7.490834938016915e-18 -0.00263 2.081668171172169e-17
    vertex 0.0002825573378819077 -0.004491120277927222 2.081668171172169e-17
  endloop
endfacet
facet normal 0 0 1
  outer loop
    vertex 0.004071721736097088 0.001916006812042826 2.081668171172169e-17
    vertex 0.002408483849102801 0.00105645896683731 2.081668171172169e-17
    vertex 0.004183994186497131 0.00165656048708105 2.081668171172169e-17
  endloop
endfacet
facet normal 0 0 1
  outer loop
    vertex 0.001916006812042827 0.004071721736097088 2.081668171172169e-17
    vertex 0.00165656048708105 0.004183994186497131 2.081668171172169e-17
    vertex 0.00105645896683731 0.002408483849102801 2.081668171172169e-17
  endloop
endfacet
facet normal 0 0 1
  outer loop
    vertex 0.001916006812042827 0.004071721736097088 2.081668171172169e-17
    vertex 0.00105645896683731 0.002408483849102801 2.081668171172169e-17
    vertex 0.001251741643687504 0.002313015965673066 2.081668171172169e-17
  endloop
endfacet
facet normal 0 0 1
  outer loop
    vertex 0.003943380060197386 0.002167891533457718 2.081668171172169e-17
    vertex 0.002313015965673066 0.001251741643687503 2.081668171172169e-17
    vertex 0.004071721736097088 0.001916006812042826 2.081668171172169e-17
  endloop
endfacet
facet normal 0 0 1
  outer loop
    vertex 0.002167891533457719 0.003943380060197386 2.081668171172169e-17
    vertex 0.001916006812042827 0.004071721736097088 2.081668171172169e-17
    vertex 0.001251741643687504 0.002313015965673066 2.081668171172169e-17
  endloop
endfacet
facet normal 0 0 1
  outer loop
    vertex 0.002411220577405485 0.003799475664759067 2.081668171172169e-17
    vertex 0.002167891533457719 0.003943380060197386 2.081668171172169e-17
    vertex 0.001251741643687504 0.002313015965673066 2.081668171172169e-17
  endloop
endfacet
facet normal 0 0 1
  outer loop
    vertex 0.0002171836785922271 -0.002621017216607542 2.081668171172169e-17
    vertex 0.0002825573378819077 -0.004491120277927222 2.081668171172169e-17
    vertex 0.000563999551039365 -0.004464516155915151 2.081668171172169e-17
  endloop
endfacet
facet normal 0 0 1
  outer loop
    vertex -0.002621017216607541 0.0002171836785922408 2.081668171172169e-17
    vertex -0.004491120277927222 0.0002825573378818992 2.081668171172169e-17
    vertex -0.00263 7.329799202489273e-18 2.081668171172169e-17
  endloop
endfacet
facet normal 0 0 1
  outer loop
    vertex 0.002411220577405485 0.003799475664759067 2.081668171172169e-17
    vertex 0.001251741643687504 0.002313015965673066 2.081668171172169e-17
    vertex 0.001438473655861983 0.00220174783783045 2.081668171172169e-17
  endloop
endfacet
facet normal 0 0 1
  outer loop
    vertex 0.003799475664759068 0.002411220577405484 2.081668171172169e-17
    vertex 0.002313015965673066 0.001251741643687503 2.081668171172169e-17
    vertex 0.003943380060197386 0.002167891533457718 2.081668171172169e-17
  endloop
endfacet
facet normal 0 0 1
  outer loop
    vertex 0.003799475664759068 0.002411220577405484 2.081668171172169e-17
    vertex 0.00220174783783045 0.001438473655861983 2.081668171172169e-17
    vertex 0.002313015965673066 0.001251741643687503 2.081668171172169e-17
  endloop
endfacet
facet normal 0 0 1
  outer loop
    vertex 0.00264503363531613 0.003640576474687262 2.081668171172169e-17
    vertex 0.001438473655861983 0.00220174783783045 2.081668171172169e-17
    vertex 0.001615379434373826 0.002075439539712515 2.081668171172169e-17
  endloop
endfacet
facet normal 0 0 1
  outer loop
    vertex 0.00264503363531613 0.003640576474687262 2.081668171172169e-17
    vertex 0.002411220577405485 0.003799475664759067 2.081668171172169e-17
    vertex 0.001438473655861983 0.00220174783783045 2.081668171172169e-17
  endloop
endfacet
facet normal 0 0 1
  outer loop
    vertex 0.003640576474687263 0.002645033635316128 2.081668171172169e-17
    vertex 0.002075439539712515 0.001615379434373826 2.081668171172169e-17
    vertex 0.00220174783783045 0.001438473655861983 2.081668171172169e-17
  endloop
endfacet
facet normal 0 0 1
  outer loop
    vertex 0.003640576474687263 0.002645033635316128 2.081668171172169e-17
    vertex 0.00220174783783045 0.001438473655861983 2.081668171172169e-17
    vertex 0.003799475664759068 0.002411220577405484 2.081668171172169e-17
  endloop
endfacet
facet normal 0 0 1
  outer loop
    vertex 0.003467309592491052 0.002868407953869103 2.081668171172169e-17
    vertex 0.001934953885070336 0.001781250533375699 2.081668171172169e-17
    vertex 0.002075439539712515 0.001615379434373826 2.081668171172169e-17
  endloop
endfacet
facet normal 0 0 1
  outer loop
    vertex 0.003467309592491052 0.002868407953869103 2.081668171172169e-17
    vertex 0.002075439539712515 0.001615379434373826 2.081668171172169e-17
    vertex 0.003640576474687263 0.002645033635316128 2.081668171172169e-17
  endloop
endfacet
facet normal 0 0 1
  outer loop
    vertex -0.002621017216607541 0.0002171836785922408 2.081668171172169e-17
    vertex -0.004464516155915151 0.0005639995510393585 2.081668171172169e-17
    vertex -0.004491120277927222 0.0002825573378818992 2.081668171172169e-17
  endloop
endfacet
facet normal 0 0 1
  outer loop
    vertex 0.002868407953869104 0.00346730959249105 2.081668171172169e-17
    vertex 0.001615379434373826 0.002075439539712515 2.081668171172169e-17
    vertex 0.001781250533375699 0.001934953885070336 2.081668171172169e-17
  endloop
endfacet
facet normal 0 0 1
  outer loop
    vertex 0.002868407953869104 0.00346730959249105 2.081668171172169e-17
    vertex 0.00264503363531613 0.003640576474687262 2.081668171172169e-17
    vertex 0.001615379434373826 0.002075439539712515 2.081668171172169e-17
  endloop
endfacet
facet normal 0 0 1
  outer loop
    vertex 0.003280358823396352 0.003080461976679098 2.081668171172169e-17
    vertex 0.001934953885070336 0.001781250533375699 2.081668171172169e-17
    vertex 0.003467309592491052 0.002868407953869103 2.081668171172169e-17
  endloop
endfacet
facet normal 0 0 1
  outer loop
    vertex 0.0030804619766791 0.003280358823396351 2.081668171172169e-17
    vertex 0.001781250533375699 0.001934953885070336 2.081668171172169e-17
    vertex 0.001934953885070336 0.001781250533375699 2.081668171172169e-17
  endloop
endfacet
facet normal 0 0 1
  outer loop
    vertex 0.0030804619766791 0.003280358823396351 2.081668171172169e-17
    vertex 0.001934953885070336 0.001781250533375699 2.081668171172169e-17
    vertex 0.003280358823396352 0.003080461976679098 2.081668171172169e-17
  endloop
endfacet
facet normal 0 0 1
  outer loop
    vertex 0.0030804619766791 0.003280358823396351 2.081668171172169e-17
    vertex 0.002868407953869104 0.00346730959249105 2.081668171172169e-17
    vertex 0.001781250533375699 0.001934953885070336 2.081668171172169e-17
  endloop
endfacet
facet normal 0 0 1
  outer loop
    vertex 0.0004328837724383239 -0.002594130227949161 2.081668171172169e-17
    vertex 0.000563999551039365 -0.004464516155915151 2.081668171172169e-17
    vertex 0.0008432159156357553 -0.0044202926282791 2.081668171172169e-17
  endloop
endfacet
facet normal 0 0 1
  outer loop
    vertex 0.0004328837724383239 -0.002594130227949161 2.081668171172169e-17
    vertex 0.0002171836785922271 -0.002621017216607542 2.081668171172169e-17
    vertex 0.000563999551039365 -0.004464516155915151 2.081668171172169e-17
  endloop
endfacet
facet normal 0 0 1
  outer loop
    vertex -0.002594130227949159 0.0004328837724383363 2.081668171172169e-17
    vertex -0.004464516155915151 0.0005639995510393585 2.081668171172169e-17
    vertex -0.002621017216607541 0.0002171836785922408 2.081668171172169e-17
  endloop
endfacet
facet normal 0 0 1
  outer loop
    vertex -0.002594130227949159 0.0004328837724383363 2.081668171172169e-17
    vertex -0.004420292628279101 0.0008432159156357506 2.081668171172169e-17
    vertex -0.004464516155915151 0.0005639995510393585 2.081668171172169e-17
  endloop
endfacet
facet normal 0 0 1
  outer loop
    vertex 0.0006456268311802963 -0.00254952269942044 2.081668171172169e-17
    vertex 0.0004328837724383239 -0.002594130227949161 2.081668171172169e-17
    vertex 0.0008432159156357553 -0.0044202926282791 2.081668171172169e-17
  endloop
endfacet
facet normal 0 0 1
  outer loop
    vertex 0.0006456268311802963 -0.00254952269942044 2.081668171172169e-17
    vertex 0.0008432159156357553 -0.0044202926282791 2.081668171172169e-17
    vertex 0.001119104492241839 -0.004358624225078841 2.081668171172169e-17
  endloop
endfacet
facet normal 0 0 1
  outer loop
    vertex 0.0006456268311802963 -0.00254952269942044 2.081668171172169e-17
    vertex 0.001119104492241839 -0.004358624225078841 2.081668171172169e-17
    vertex 0.001390576474687255 -0.004279754323328193 2.081668171172169e-17
  endloop
endfacet
facet normal 0 0 1
  outer loop
    vertex -0.002549522699420438 0.0006456268311803073 2.081668171172169e-17
    vertex -0.004279754323328193 0.001390576474687254 2.081668171172169e-17
    vertex -0.004358624225078842 0.001119104492241837 2.081668171172169e-17
  endloop
endfacet
facet normal 0 0 1
  outer loop
    vertex -0.002549522699420438 0.0006456268311803073 2.081668171172169e-17
    vertex -0.004358624225078842 0.001119104492241837 2.081668171172169e-17
    vertex -0.004420292628279101 0.0008432159156357506 2.081668171172169e-17
  endloop
endfacet
facet normal 0 0 1
  outer loop
    vertex -0.002549522699420438 0.0006456268311803073 2.081668171172169e-17
    vertex -0.004420292628279101 0.0008432159156357506 2.081668171172169e-17
    vertex -0.002594130227949159 0.0004328837724383363 2.081668171172169e-17
  endloop
endfacet
facet normal 0 0 1
  outer loop
    vertex 0.0008539596040083128 -0.002487499345672671 2.081668171172169e-17
    vertex 0.0006456268311802963 -0.00254952269942044 2.081668171172169e-17
    vertex 0.001390576474687255 -0.004279754323328193 2.081668171172169e-17
  endloop
endfacet
facet normal 0 0 1
  outer loop
    vertex 0.0008539596040083128 -0.002487499345672671 2.081668171172169e-17
    vertex 0.001390576474687255 -0.004279754323328193 2.081668171172169e-17
    vertex 0.001656560487081041 -0.004183994186497134 2.081668171172169e-17
  endloop
endfacet
facet normal 0 0 1
  outer loop
    vertex -0.002487499345672668 0.0008539596040083225 2.081668171172169e-17
    vertex -0.004183994186497134 0.001656560487081042 2.081668171172169e-17
    vertex -0.004279754323328193 0.001390576474687254 2.081668171172169e-17
  endloop
endfacet
facet normal 0 0 1
  outer loop
    vertex -0.002487499345672668 0.0008539596040083225 2.081668171172169e-17
    vertex -0.004279754323328193 0.001390576474687254 2.081668171172169e-17
    vertex -0.002549522699420438 0.0006456268311803073 2.081668171172169e-17
  endloop
endfacet
facet normal 0 0 1
  outer loop
    vertex 0.001056458966837306 -0.002408483849102803 2.081668171172169e-17
    vertex 0.0008539596040083128 -0.002487499345672671 2.081668171172169e-17
    vertex 0.001656560487081041 -0.004183994186497134 2.081668171172169e-17
  endloop
endfacet
facet normal 0 0 1
  outer loop
    vertex 0.001056458966837306 -0.002408483849102803 2.081668171172169e-17
    vertex 0.001656560487081041 -0.004183994186497134 2.081668171172169e-17
    vertex 0.001916006812042816 -0.004071721736097093 2.081668171172169e-17
  endloop
endfacet
facet normal 0 0 1
  outer loop
    vertex -0.002408483849102799 0.001056458966837314 2.081668171172169e-17
    vertex -0.004071721736097092 0.001916006812042819 2.081668171172169e-17
    vertex -0.004183994186497134 0.001656560487081042 2.081668171172169e-17
  endloop
endfacet
facet normal 0 0 1
  outer loop
    vertex -0.002408483849102799 0.001056458966837314 2.081668171172169e-17
    vertex -0.004183994186497134 0.001656560487081042 2.081668171172169e-17
    vertex -0.002487499345672668 0.0008539596040083225 2.081668171172169e-17
  endloop
endfacet
facet normal 0 0 1
  outer loop
    vertex 0.0012517416436875 -0.002313015965673068 2.081668171172169e-17
    vertex 0.001056458966837306 -0.002408483849102803 2.081668171172169e-17
    vertex 0.001916006812042816 -0.004071721736097093 2.081668171172169e-17
  endloop
endfacet
facet normal 0 0 1
  outer loop
    vertex 0.0012517416436875 -0.002313015965673068 2.081668171172169e-17
    vertex 0.001916006812042816 -0.004071721736097093 2.081668171172169e-17
    vertex 0.002167891533457707 -0.003943380060197392 2.081668171172169e-17
  endloop
endfacet
facet normal 0 0 1
  outer loop
    vertex 0.0012517416436875 -0.002313015965673068 2.081668171172169e-17
    vertex 0.002167891533457707 -0.003943380060197392 2.081668171172169e-17
    vertex 0.002411220577405472 -0.003799475664759076 2.081668171172169e-17
  endloop
endfacet
facet normal 0 0 1
  outer loop
    vertex -0.002313015965673064 0.001251741643687507 2.081668171172169e-17
    vertex -0.003799475664759072 0.002411220577405478 2.081668171172169e-17
    vertex -0.003943380060197389 0.002167891533457712 2.081668171172169e-17
  endloop
endfacet
facet normal 0 0 1
  outer loop
    vertex -0.002313015965673064 0.001251741643687507 2.081668171172169e-17
    vertex -0.003943380060197389 0.002167891533457712 2.081668171172169e-17
    vertex -0.004071721736097092 0.001916006812042819 2.081668171172169e-17
  endloop
endfacet
facet normal 0 0 1
  outer loop
    vertex -0.002313015965673064 0.001251741643687507 2.081668171172169e-17
    vertex -0.004071721736097092 0.001916006812042819 2.081668171172169e-17
    vertex -0.002408483849102799 0.001056458966837314 2.081668171172169e-17
  endloop
endfacet
facet normal 0 0 1
  outer loop
    vertex 0.00143847365586198 -0.002201747837830452 2.081668171172169e-17
    vertex 0.0012517416436875 -0.002313015965673068 2.081668171172169e-17
    vertex 0.002411220577405472 -0.003799475664759076 2.081668171172169e-17
  endloop
endfacet
facet normal 0 0 1
  outer loop
    vertex 0.00143847365586198 -0.002201747837830452 2.081668171172169e-17
    vertex 0.002411220577405472 -0.003799475664759076 2.081668171172169e-17
    vertex 0.002645033635316115 -0.003640576474687273 2.081668171172169e-17
  endloop
endfacet
facet normal 0 0 1
  outer loop
    vertex -0.002201747837830448 0.001438473655861985 2.081668171172169e-17
    vertex -0.003799475664759072 0.002411220577405478 2.081668171172169e-17
    vertex -0.002313015965673064 0.001251741643687507 2.081668171172169e-17
  endloop
endfacet
facet normal 0 0 1
  outer loop
    vertex -0.002201747837830448 0.001438473655861985 2.081668171172169e-17
    vertex -0.003640576474687268 0.002645033635316123 2.081668171172169e-17
    vertex -0.003799475664759072 0.002411220577405478 2.081668171172169e-17
  endloop
endfacet
facet normal 0 0 1
  outer loop
    vertex 0.001615379434373824 -0.002075439539712517 2.081668171172169e-17
    vertex 0.00143847365586198 -0.002201747837830452 2.081668171172169e-17
    vertex 0.002645033635316115 -0.003640576474687273 2.081668171172169e-17
  endloop
endfacet
facet normal 0 0 1
  outer loop
    vertex 0.001615379434373824 -0.002075439539712517 2.081668171172169e-17
    vertex 0.002645033635316115 -0.003640576474687273 2.081668171172169e-17
    vertex 0.002868407953869089 -0.003467309592491063 2.081668171172169e-17
  endloop
endfacet
facet normal 0 0 1
  outer loop
    vertex -0.002075439539712513 0.001615379434373829 2.081668171172169e-17
    vertex -0.003640576474687268 0.002645033635316123 2.081668171172169e-17
    vertex -0.002201747837830448 0.001438473655861985 2.081668171172169e-17
  endloop
endfacet
facet normal 0 0 1
  outer loop
    vertex -0.002075439539712513 0.001615379434373829 2.081668171172169e-17
    vertex -0.003467309592491056 0.002868407953869098 2.081668171172169e-17
    vertex -0.003640576474687268 0.002645033635316123 2.081668171172169e-17
  endloop
endfacet
facet normal 0 0 1
  outer loop
    vertex 0.001781250533375698 -0.001934953885070337 2.081668171172169e-17
    vertex 0.001615379434373824 -0.002075439539712517 2.081668171172169e-17
    vertex 0.002868407953869089 -0.003467309592491063 2.081668171172169e-17
  endloop
endfacet
facet normal 0 0 1
  outer loop
    vertex 0.001781250533375698 -0.001934953885070337 2.081668171172169e-17
    vertex 0.002868407953869089 -0.003467309592491063 2.081668171172169e-17
    vertex 0.003080461976679084 -0.003280358823396365 2.081668171172169e-17
  endloop
endfacet
facet normal 0 0 1
  outer loop
    vertex -0.001934953885070335 0.001781250533375701 2.081668171172169e-17
    vertex -0.003280358823396356 0.003080461976679094 2.081668171172169e-17
    vertex -0.003467309592491056 0.002868407953869098 2.081668171172169e-17
  endloop
endfacet
facet normal 0 0 1
  outer loop
    vertex -0.001934953885070335 0.001781250533375701 2.081668171172169e-17
    vertex -0.003467309592491056 0.002868407953869098 2.081668171172169e-17
    vertex -0.002075439539712513 0.001615379434373829 2.081668171172169e-17
  endloop
endfacet
facet normal 0 0 1
  outer loop
    vertex 0.003280358823396337 -0.003080461976679114 2.081668171172169e-17
    vertex 0.001934953885070335 -0.0017812505333757 2.081668171172169e-17
    vertex 0.001781250533375698 -0.001934953885070337 2.081668171172169e-17
  endloop
endfacet
facet normal 0 0 1
  outer loop
    vertex 0.003280358823396337 -0.003080461976679114 2.081668171172169e-17
    vertex 0.001781250533375698 -0.001934953885070337 2.081668171172169e-17
    vertex 0.003080461976679084 -0.003280358823396365 2.081668171172169e-17
  endloop
endfacet
facet normal 0 0 1
  outer loop
    vertex -0.003080461976679104 0.003280358823396347 2.081668171172169e-17
    vertex -0.001934953885070335 0.001781250533375701 2.081668171172169e-17
    vertex -0.001781250533375698 0.001934953885070337 2.081668171172169e-17
  endloop
endfacet
facet normal 0 0 1
  outer loop
    vertex -0.003080461976679104 0.003280358823396347 2.081668171172169e-17
    vertex -0.003280358823396356 0.003080461976679094 2.081668171172169e-17
    vertex -0.001934953885070335 0.001781250533375701 2.081668171172169e-17
  endloop
endfacet
facet normal 0 0 1
  outer loop
    vertex 0.003467309592491036 -0.002868407953869122 2.081668171172169e-17
    vertex 0.001934953885070335 -0.0017812505333757 2.081668171172169e-17
    vertex 0.003280358823396337 -0.003080461976679114 2.081668171172169e-17
  endloop
endfacet
facet normal 0 0 1
  outer loop
    vertex 0.003467309592491036 -0.002868407953869122 2.081668171172169e-17
    vertex 0.002075439539712514 -0.001615379434373827 2.081668171172169e-17
    vertex 0.001934953885070335 -0.0017812505333757 2.081668171172169e-17
  endloop
endfacet
facet normal 0 0 1
  outer loop
    vertex -0.002868407953869108 0.003467309592491048 2.081668171172169e-17
    vertex -0.001781250533375698 0.001934953885070337 2.081668171172169e-17
    vertex -0.001615379434373825 0.002075439539712516 2.081668171172169e-17
  endloop
endfacet
facet normal 0 0 1
  outer loop
    vertex -0.002868407953869108 0.003467309592491048 2.081668171172169e-17
    vertex -0.003080461976679104 0.003280358823396347 2.081668171172169e-17
    vertex -0.001781250533375698 0.001934953885070337 2.081668171172169e-17
  endloop
endfacet
facet normal 0 0 1
  outer loop
    vertex 0.003640576474687248 -0.002645033635316149 2.081668171172169e-17
    vertex 0.002075439539712514 -0.001615379434373827 2.081668171172169e-17
    vertex 0.003467309592491036 -0.002868407953869122 2.081668171172169e-17
  endloop
endfacet
facet normal 0 0 1
  outer loop
    vertex 0.003640576474687248 -0.002645033635316149 2.081668171172169e-17
    vertex 0.00220174783783045 -0.001438473655861983 2.081668171172169e-17
    vertex 0.002075439539712514 -0.001615379434373827 2.081668171172169e-17
  endloop
endfacet
facet normal 0 0 1
  outer loop
    vertex -0.002645033635316133 0.00364057647468726 2.081668171172169e-17
    vertex -0.001615379434373825 0.002075439539712516 2.081668171172169e-17
    vertex -0.001438473655861982 0.00220174783783045 2.081668171172169e-17
  endloop
endfacet
facet normal 0 0 1
  outer loop
    vertex -0.002645033635316133 0.00364057647468726 2.081668171172169e-17
    vertex -0.002868407953869108 0.003467309592491048 2.081668171172169e-17
    vertex -0.001615379434373825 0.002075439539712516 2.081668171172169e-17
  endloop
endfacet
facet normal 0 0 1
  outer loop
    vertex 0.003799475664759053 -0.002411220577405507 2.081668171172169e-17
    vertex 0.00220174783783045 -0.001438473655861983 2.081668171172169e-17
    vertex 0.003640576474687248 -0.002645033635316149 2.081668171172169e-17
  endloop
endfacet
facet normal 0 0 1
  outer loop
    vertex 0.003799475664759053 -0.002411220577405507 2.081668171172169e-17
    vertex 0.002313015965673067 -0.001251741643687503 2.081668171172169e-17
    vertex 0.00220174783783045 -0.001438473655861983 2.081668171172169e-17
  endloop
endfacet
facet normal 0 0 1
  outer loop
    vertex -0.002411220577405489 0.003799475664759065 2.081668171172169e-17
    vertex -0.001438473655861982 0.00220174783783045 2.081668171172169e-17
    vertex -0.001251741643687503 0.002313015965673066 2.081668171172169e-17
  endloop
endfacet
facet normal 0 0 1
  outer loop
    vertex -0.002411220577405489 0.003799475664759065 2.081668171172169e-17
    vertex -0.002645033635316133 0.00364057647468726 2.081668171172169e-17
    vertex -0.001438473655861982 0.00220174783783045 2.081668171172169e-17
  endloop
endfacet
facet normal 0 0 1
  outer loop
    vertex 0.003943380060197372 -0.002167891533457743 2.081668171172169e-17
    vertex 0.002313015965673067 -0.001251741643687503 2.081668171172169e-17
    vertex 0.003799475664759053 -0.002411220577405507 2.081668171172169e-17
  endloop
endfacet
facet normal 0 0 1
  outer loop
    vertex -0.002167891533457723 0.003943380060197383 2.081668171172169e-17
    vertex -0.002411220577405489 0.003799475664759065 2.081668171172169e-17
    vertex -0.001251741643687503 0.002313015965673066 2.081668171172169e-17
  endloop
endfacet
facet normal 0 0 1
  outer loop
    vertex 0.004071721736097075 -0.001916006812042854 2.081668171172169e-17
    vertex 0.002408483849102801 -0.001056458966837309 2.081668171172169e-17
    vertex 0.002313015965673067 -0.001251741643687503 2.081668171172169e-17
  endloop
endfacet
facet normal 0 0 1
  outer loop
    vertex 0.004071721736097075 -0.001916006812042854 2.081668171172169e-17
    vertex 0.002313015965673067 -0.001251741643687503 2.081668171172169e-17
    vertex 0.003943380060197372 -0.002167891533457743 2.081668171172169e-17
  endloop
endfacet
facet normal 0 0 1
  outer loop
    vertex -0.001916006812042831 0.004071721736097086 2.081668171172169e-17
    vertex -0.001251741643687503 0.002313015965673066 2.081668171172169e-17
    vertex -0.00105645896683731 0.002408483849102801 2.081668171172169e-17
  endloop
endfacet
facet normal 0 0 1
  outer loop
    vertex -0.001916006812042831 0.004071721736097086 2.081668171172169e-17
    vertex -0.002167891533457723 0.003943380060197383 2.081668171172169e-17
    vertex -0.001251741643687503 0.002313015965673066 2.081668171172169e-17
  endloop
endfacet
facet normal 0 0 1
  outer loop
    vertex 0.004183994186497119 -0.00165656048708108 2.081668171172169e-17
    vertex 0.002408483849102801 -0.001056458966837309 2.081668171172169e-17
    vertex 0.004071721736097075 -0.001916006812042854 2.081668171172169e-17
  endloop
endfacet
facet normal 0 0 1
  outer loop
    vertex 0.004183994186497119 -0.00165656048708108 2.081668171172169e-17
    vertex 0.00248749934567267 -0.000853959604008316 2.081668171172169e-17
    vertex 0.002408483849102801 -0.001056458966837309 2.081668171172169e-17
  endloop
endfacet
facet normal 0 0 1
  outer loop
    vertex -0.001656560487081055 0.004183994186497129 2.081668171172169e-17
    vertex -0.00105645896683731 0.002408483849102801 2.081668171172169e-17
    vertex -0.0008539596040083175 0.002487499345672669 2.081668171172169e-17
  endloop
endfacet
facet normal 0 0 1
  outer loop
    vertex -0.001656560487081055 0.004183994186497129 2.081668171172169e-17
    vertex -0.001916006812042831 0.004071721736097086 2.081668171172169e-17
    vertex -0.00105645896683731 0.002408483849102801 2.081668171172169e-17
  endloop
endfacet
facet normal 0 0 1
  outer loop
    vertex 0.00427975432332818 -0.001390576474687295 2.081668171172169e-17
    vertex 0.00248749934567267 -0.000853959604008316 2.081668171172169e-17
    vertex 0.004183994186497119 -0.00165656048708108 2.081668171172169e-17
  endloop
endfacet
facet normal 0 0 1
  outer loop
    vertex 0.00427975432332818 -0.001390576474687295 2.081668171172169e-17
    vertex 0.002549522699420439 -0.0006456268311802997 2.081668171172169e-17
    vertex 0.00248749934567267 -0.000853959604008316 2.081668171172169e-17
  endloop
endfacet
facet normal 0 0 1
  outer loop
    vertex -0.001390576474687268 0.004279754323328189 2.081668171172169e-17
    vertex -0.001656560487081055 0.004183994186497129 2.081668171172169e-17
    vertex -0.0008539596040083175 0.002487499345672669 2.081668171172169e-17
  endloop
endfacet
facet normal 0 0 1
  outer loop
    vertex -0.001390576474687268 0.004279754323328189 2.081668171172169e-17
    vertex -0.0008539596040083175 0.002487499345672669 2.081668171172169e-17
    vertex -0.0006456268311803017 0.002549522699420439 2.081668171172169e-17
  endloop
endfacet
facet normal 0 0 1
  outer loop
    vertex 0.004358624225078831 -0.00111910449224188 2.081668171172169e-17
    vertex 0.002549522699420439 -0.0006456268311802997 2.081668171172169e-17
    vertex 0.00427975432332818 -0.001390576474687295 2.081668171172169e-17
  endloop
endfacet
facet normal 0 0 1
  outer loop
    vertex -0.001119104492241851 0.004358624225078839 2.081668171172169e-17
    vertex -0.001390576474687268 0.004279754323328189 2.081668171172169e-17
    vertex -0.0006456268311803017 0.002549522699420439 2.081668171172169e-17
  endloop
endfacet
endsolid pipeEndWall
