solid pipeOuterWall
facet normal 0.998027 0.0627905 0
  outer loop
    vertex 0.00446451615591515 0.0005639995510393691 2.081668171172169e-17
    vertex 0.0045 -1.10214571844014e-18 2.081668171172169e-17
    vertex 0.0045 -1.10214571844014e-18 -0.04999999999999998
  endloop
endfacet
facet normal 0.998027 0.0627905 0
  outer loop
    vertex 0.00446451615591515 0.0005639995510393691 2.081668171172169e-17
    vertex 0.0045 -1.10214571844014e-18 -0.04999999999999998
    vertex 0.00446451615591515 0.0005639995510393691 -0.04999999999999998
  endloop
endfacet
facet normal 0.982287 0.187381 0
  outer loop
    vertex 0.004358624225078839 0.001119104492241847 2.081668171172169e-17
    vertex 0.00446451615591515 0.0005639995510393691 2.081668171172169e-17
    vertex 0.00446451615591515 0.0005639995510393691 -0.04999999999999998
  endloop
endfacet
facet normal 0.982287 0.187381 0
  outer loop
    vertex 0.004358624225078839 0.001119104492241847 2.081668171172169e-17
    vertex 0.00446451615591515 0.0005639995510393691 -0.04999999999999998
    vertex 0.004358624225078839 0.001119104492241847 -0.04999999999999998
  endloop
endfacet
facet normal 0.951057 0.309017 0
  outer loop
    vertex 0.004183994186497131 0.001656560487081051 2.081668171172169e-17
    vertex 0.004358624225078839 0.001119104492241847 2.081668171172169e-17
    vertex 0.004358624225078839 0.001119104492241847 -0.04999999999999998
  endloop
endfacet
facet normal 0.951057 0.309017 0
  outer loop
    vertex 0.004183994186497131 0.001656560487081051 2.081668171172169e-17
    vertex 0.004358624225078839 0.001119104492241847 -0.04999999999999998
    vertex 0.004183994186497131 0.001656560487081051 -0.04999999999999998
  endloop
endfacet
facet normal 0.904827 0.425779 0
  outer loop
    vertex 0.003943380060197386 0.002167891533457719 2.081668171172169e-17
    vertex 0.004183994186497131 0.001656560487081051 2.081668171172169e-17
    vertex 0.004183994186497131 0.001656560487081051 -0.04999999999999998
  endloop
endfacet
facet normal 0.904827 0.425779 0
  outer loop
    vertex 0.003943380060197386 0.002167891533457719 2.081668171172169e-17
    vertex 0.004183994186497131 0.001656560487081051 -0.04999999999999998
    vertex 0.003943380060197386 0.002167891533457719 -0.04999999999999998
  endloop
endfacet
facet normal 0.844328 0.535827 0
  outer loop
    vertex 0.003640576474687263 0.002645033635316129 2.081668171172169e-17
    vertex 0.003943380060197386 0.002167891533457719 2.081668171172169e-17
    vertex 0.003943380060197386 0.002167891533457719 -0.04999999999999998
  endloop
endfacet
facet normal 0.844328 0.535827 0
  outer loop
    vertex 0.003640576474687263 0.002645033635316129 2.081668171172169e-17
    vertex 0.003943380060197386 0.002167891533457719 -0.04999999999999998
    vertex 0.003640576474687263 0.002645033635316129 -0.04999999999999998
  endloop
endfacet
facet normal 0.770513 0.637424 0
  outer loop
    vertex 0.003280358823396352 0.003080461976679098 2.081668171172169e-17
    vertex 0.003640576474687263 0.002645033635316129 2.081668171172169e-17
    vertex 0.003640576474687263 0.002645033635316129 -0.04999999999999998
  endloop
endfacet
facet normal 0.770513 0.637424 0
  outer loop
    vertex 0.003280358823396352 0.003080461976679098 2.081668171172169e-17
    vertex 0.003640576474687263 0.002645033635316129 -0.04999999999999998
    vertex 0.003280358823396352 0.003080461976679098 -0.04999999999999998
  endloop
endfacet
facet normal 0.684547 0.728969 0
  outer loop
    vertex 0.002868407953869104 0.003467309592491051 2.081668171172169e-17
    vertex 0.003280358823396352 0.003080461976679098 2.081668171172169e-17
    vertex 0.003280358823396352 0.003080461976679098 -0.04999999999999998
  endloop
endfacet
facet normal 0.684547 0.728969 0
  outer loop
    vertex 0.002868407953869104 0.003467309592491051 2.081668171172169e-17
    vertex 0.003280358823396352 0.003080461976679098 -0.04999999999999998
    vertex 0.002868407953869104 0.003467309592491051 -0.04999999999999998
  endloop
endfacet
facet normal 0.587785 0.809017 0
  outer loop
    vertex 0.002411220577405485 0.003799475664759067 2.081668171172169e-17
    vertex 0.002868407953869104 0.003467309592491051 2.081668171172169e-17
    vertex 0.002868407953869104 0.003467309592491051 -0.04999999999999998
  endloop
endfacet
facet normal 0.587785 0.809017 0
  outer loop
    vertex 0.002411220577405485 0.003799475664759067 2.081668171172169e-17
    vertex 0.002868407953869104 0.003467309592491051 -0.04999999999999998
    vertex 0.002411220577405485 0.003799475664759067 -0.04999999999999998
  endloop
endfacet
facet normal 0.481754 0.876307 0
  outer loop
    vertex 0.001916006812042828 0.004071721736097087 2.081668171172169e-17
    vertex 0.002411220577405485 0.003799475664759067 2.081668171172169e-17
    vertex 0.002411220577405485 0.003799475664759067 -0.04999999999999998
  endloop
endfacet
facet normal 0.481754 0.876307 0
  outer loop
    vertex 0.001916006812042828 0.004071721736097087 2.081668171172169e-17
    vertex 0.002411220577405485 0.003799475664759067 -0.04999999999999998
    vertex 0.001916006812042828 0.004071721736097087 -0.04999999999999998
  endloop
endfacet
facet normal 0.368125 0.929776 0
  outer loop
    vertex 0.001390576474687264 0.004279754323328191 2.081668171172169e-17
    vertex 0.001916006812042828 0.004071721736097087 2.081668171172169e-17
    vertex 0.001916006812042828 0.004071721736097087 -0.04999999999999998
  endloop
endfacet
facet normal 0.368125 0.929776 0
  outer loop
    vertex 0.001390576474687264 0.004279754323328191 2.081668171172169e-17
    vertex 0.001916006812042828 0.004071721736097087 -0.04999999999999998
    vertex 0.001390576474687264 0.004279754323328191 -0.04999999999999998
  endloop
endfacet
facet normal 0.24869 0.968583 0
  outer loop
    vertex 0.0008432159156357621 0.004420292628279098 2.081668171172169e-17
    vertex 0.001390576474687264 0.004279754323328191 2.081668171172169e-17
    vertex 0.001390576474687264 0.004279754323328191 -0.04999999999999998
  endloop
endfacet
facet normal 0.24869 0.968583 0
  outer loop
    vertex 0.0008432159156357621 0.004420292628279098 2.081668171172169e-17
    vertex 0.001390576474687264 0.004279754323328191 -0.04999999999999998
    vertex 0.0008432159156357621 0.004420292628279098 -0.04999999999999998
  endloop
endfacet
facet normal 0.125333 0.992115 0
  outer loop
    vertex 0.0002825573378819119 0.004491120277927222 2.081668171172169e-17
    vertex 0.0008432159156357621 0.004420292628279098 2.081668171172169e-17
    vertex 0.0008432159156357621 0.004420292628279098 -0.04999999999999998
  endloop
endfacet
facet normal 0.125333 0.992115 0
  outer loop
    vertex 0.0002825573378819119 0.004491120277927222 2.081668171172169e-17
    vertex 0.0008432159156357621 0.004420292628279098 -0.04999999999999998
    vertex 0.0002825573378819119 0.004491120277927222 -0.04999999999999998
  endloop
endfacet
facet normal -0 1 0
  outer loop
    vertex -0.0002825573378819083 0.004491120277927222 2.081668171172169e-17
    vertex 0.0002825573378819119 0.004491120277927222 2.081668171172169e-17
    vertex 0.0002825573378819119 0.004491120277927222 -0.04999999999999998
  endloop
endfacet
facet normal 0 1 0
  outer loop
    vertex -0.0002825573378819083 0.004491120277927222 2.081668171172169e-17
    vertex 0.0002825573378819119 0.004491120277927222 -0.04999999999999998
    vertex -0.0002825573378819083 0.004491120277927222 -0.04999999999999998
  endloop
endfacet
facet normal -0.125333 0.992115 0
  outer loop
    vertex -0.0008432159156357586 0.004420292628279099 2.081668171172169e-17
    vertex -0.0002825573378819083 0.004491120277927222 2.081668171172169e-17
    vertex -0.0002825573378819083 0.004491120277927222 -0.04999999999999998
  endloop
endfacet
facet normal -0.125333 0.992115 0
  outer loop
    vertex -0.0008432159156357586 0.004420292628279099 2.081668171172169e-17
    vertex -0.0002825573378819083 0.004491120277927222 -0.04999999999999998
    vertex -0.0008432159156357586 0.004420292628279099 -0.04999999999999998
  endloop
endfacet
facet normal -0.24869 0.968583 0
  outer loop
    vertex -0.001390576474687261 0.004279754323328192 2.081668171172169e-17
    vertex -0.0008432159156357586 0.004420292628279099 -0.04999999999999998
    vertex -0.001390576474687261 0.004279754323328192 -0.04999999999999998
  endloop
endfacet
facet normal -0.24869 0.968583 0
  outer loop
    vertex -0.001390576474687261 0.004279754323328192 2.081668171172169e-17
    vertex -0.0008432159156357586 0.004420292628279099 2.081668171172169e-17
    vertex -0.0008432159156357586 0.004420292628279099 -0.04999999999999998
  endloop
endfacet
facet normal -0.368125 0.929776 0
  outer loop
    vertex -0.001916006812042825 0.004071721736097088 2.081668171172169e-17
    vertex -0.001390576474687261 0.004279754323328192 -0.04999999999999998
    vertex -0.001916006812042825 0.004071721736097088 -0.04999999999999998
  endloop
endfacet
facet normal -0.368125 0.929776 0
  outer loop
    vertex -0.001916006812042825 0.004071721736097088 2.081668171172169e-17
    vertex -0.001390576474687261 0.004279754323328192 2.081668171172169e-17
    vertex -0.001390576474687261 0.004279754323328192 -0.04999999999999998
  endloop
endfacet
facet normal -0.481754 0.876307 0
  outer loop
    vertex -0.002411220577405484 0.003799475664759068 2.081668171172169e-17
    vertex -0.001916006812042825 0.004071721736097088 -0.04999999999999998
    vertex -0.002411220577405484 0.003799475664759068 -0.04999999999999998
  endloop
endfacet
facet normal -0.481754 0.876307 0
  outer loop
    vertex -0.002411220577405484 0.003799475664759068 2.081668171172169e-17
    vertex -0.001916006812042825 0.004071721736097088 2.081668171172169e-17
    vertex -0.001916006812042825 0.004071721736097088 -0.04999999999999998
  endloop
endfacet
facet normal -0.587785 0.809017 0
  outer loop
    vertex -0.002868407953869104 0.003467309592491051 2.081668171172169e-17
    vertex -0.002411220577405484 0.003799475664759068 -0.04999999999999998
    vertex -0.002868407953869104 0.003467309592491051 -0.04999999999999998
  endloop
endfacet
facet normal -0.587785 0.809017 0
  outer loop
    vertex -0.002868407953869104 0.003467309592491051 2.081668171172169e-17
    vertex -0.002411220577405484 0.003799475664759068 2.081668171172169e-17
    vertex -0.002411220577405484 0.003799475664759068 -0.04999999999999998
  endloop
endfacet
facet normal -0.684547 0.728969 0
  outer loop
    vertex -0.003280358823396352 0.003080461976679098 2.081668171172169e-17
    vertex -0.002868407953869104 0.003467309592491051 -0.04999999999999998
    vertex -0.003280358823396352 0.003080461976679098 -0.04999999999999998
  endloop
endfacet
facet normal -0.684547 0.728969 0
  outer loop
    vertex -0.003280358823396352 0.003080461976679098 2.081668171172169e-17
    vertex -0.002868407953869104 0.003467309592491051 2.081668171172169e-17
    vertex -0.002868407953869104 0.003467309592491051 -0.04999999999999998
  endloop
endfacet
facet normal -0.770513 0.637424 0
  outer loop
    vertex -0.003640576474687264 0.002645033635316128 2.081668171172169e-17
    vertex -0.003280358823396352 0.003080461976679098 -0.04999999999999998
    vertex -0.003640576474687264 0.002645033635316128 -0.04999999999999998
  endloop
endfacet
facet normal -0.770513 0.637424 0
  outer loop
    vertex -0.003640576474687264 0.002645033635316128 2.081668171172169e-17
    vertex -0.003280358823396352 0.003080461976679098 2.081668171172169e-17
    vertex -0.003280358823396352 0.003080461976679098 -0.04999999999999998
  endloop
endfacet
facet normal -0.844328 0.535827 0
  outer loop
    vertex -0.003943380060197387 0.002167891533457717 2.081668171172169e-17
    vertex -0.003640576474687264 0.002645033635316128 -0.04999999999999998
    vertex -0.003943380060197387 0.002167891533457717 -0.04999999999999998
  endloop
endfacet
facet normal -0.844328 0.535827 0
  outer loop
    vertex -0.003943380060197387 0.002167891533457717 2.081668171172169e-17
    vertex -0.003640576474687264 0.002645033635316128 2.081668171172169e-17
    vertex -0.003640576474687264 0.002645033635316128 -0.04999999999999998
  endloop
endfacet
facet normal -0.904827 0.425779 0
  outer loop
    vertex -0.004183994186497132 0.001656560487081048 2.081668171172169e-17
    vertex -0.003943380060197387 0.002167891533457717 -0.04999999999999998
    vertex -0.004183994186497132 0.001656560487081048 -0.04999999999999998
  endloop
endfacet
facet normal -0.904827 0.425779 0
  outer loop
    vertex -0.004183994186497132 0.001656560487081048 2.081668171172169e-17
    vertex -0.003943380060197387 0.002167891533457717 2.081668171172169e-17
    vertex -0.003943380060197387 0.002167891533457717 -0.04999999999999998
  endloop
endfacet
facet normal -0.951057 0.309017 0
  outer loop
    vertex -0.00435862422507884 0.001119104492241843 2.081668171172169e-17
    vertex -0.004183994186497132 0.001656560487081048 -0.04999999999999998
    vertex -0.00435862422507884 0.001119104492241843 -0.04999999999999998
  endloop
endfacet
facet normal -0.951057 0.309017 0
  outer loop
    vertex -0.00435862422507884 0.001119104492241843 2.081668171172169e-17
    vertex -0.004183994186497132 0.001656560487081048 2.081668171172169e-17
    vertex -0.004183994186497132 0.001656560487081048 -0.04999999999999998
  endloop
endfacet
facet normal -0.982287 0.187381 0
  outer loop
    vertex -0.004464516155915151 0.0005639995510393643 2.081668171172169e-17
    vertex -0.00435862422507884 0.001119104492241843 2.081668171172169e-17
    vertex -0.00435862422507884 0.001119104492241843 -0.04999999999999998
  endloop
endfacet
facet normal -0.982287 0.187381 0
  outer loop
    vertex -0.004464516155915151 0.0005639995510393643 2.081668171172169e-17
    vertex -0.00435862422507884 0.001119104492241843 -0.04999999999999998
    vertex -0.004464516155915151 0.0005639995510393643 -0.04999999999999998
  endloop
endfacet
facet normal -0.998027 0.0627905 0
  outer loop
    vertex -0.0045 -5.444131473755775e-18 2.081668171172169e-17
    vertex -0.004464516155915151 0.0005639995510393643 2.081668171172169e-17
    vertex -0.004464516155915151 0.0005639995510393643 -0.04999999999999998
  endloop
endfacet
facet normal -0.998027 0.0627905 0
  outer loop
    vertex -0.0045 -5.444131473755775e-18 2.081668171172169e-17
    vertex -0.004464516155915151 0.0005639995510393643 -0.04999999999999998
    vertex -0.0045 -5.444131473755775e-18 -0.04999999999999998
  endloop
endfacet
facet normal -0.998027 -0.0627905 0
  outer loop
    vertex -0.004464516155915149 -0.0005639995510393752 2.081668171172169e-17
    vertex -0.0045 -5.444131473755775e-18 2.081668171172169e-17
    vertex -0.0045 -5.444131473755775e-18 -0.04999999999999998
  endloop
endfacet
facet normal -0.998027 -0.0627905 -0
  outer loop
    vertex -0.004464516155915149 -0.0005639995510393752 2.081668171172169e-17
    vertex -0.0045 -5.444131473755775e-18 -0.04999999999999998
    vertex -0.004464516155915149 -0.0005639995510393752 -0.04999999999999998
  endloop
endfacet
facet normal -0.982287 -0.187381 0
  outer loop
    vertex -0.004358624225078838 -0.001119104492241853 2.081668171172169e-17
    vertex -0.004464516155915149 -0.0005639995510393752 2.081668171172169e-17
    vertex -0.004464516155915149 -0.0005639995510393752 -0.04999999999999998
  endloop
endfacet
facet normal -0.982287 -0.187381 -0
  outer loop
    vertex -0.004358624225078838 -0.001119104492241853 2.081668171172169e-17
    vertex -0.004464516155915149 -0.0005639995510393752 -0.04999999999999998
    vertex -0.004358624225078838 -0.001119104492241853 -0.04999999999999998
  endloop
endfacet
facet normal -0.951057 -0.309017 -0
  outer loop
    vertex -0.004358624225078838 -0.001119104492241853 2.081668171172169e-17
    vertex -0.004358624225078838 -0.001119104492241853 -0.04999999999999998
    vertex -0.004183994186497128 -0.001656560487081058 -0.04999999999999998
  endloop
endfacet
facet normal -0.951057 -0.309017 -0
  outer loop
    vertex -0.004183994186497128 -0.001656560487081058 2.081668171172169e-17
    vertex -0.004358624225078838 -0.001119104492241853 2.081668171172169e-17
    vertex -0.004183994186497128 -0.001656560487081058 -0.04999999999999998
  endloop
endfacet
facet normal -0.904827 -0.425779 0
  outer loop
    vertex -0.003943380060197382 -0.002167891533457726 2.081668171172169e-17
    vertex -0.004183994186497128 -0.001656560487081058 2.081668171172169e-17
    vertex -0.004183994186497128 -0.001656560487081058 -0.04999999999999998
  endloop
endfacet
facet normal -0.904827 -0.425779 -0
  outer loop
    vertex -0.003943380060197382 -0.002167891533457726 2.081668171172169e-17
    vertex -0.004183994186497128 -0.001656560487081058 -0.04999999999999998
    vertex -0.003943380060197382 -0.002167891533457726 -0.04999999999999998
  endloop
endfacet
facet normal -0.844328 -0.535827 0
  outer loop
    vertex -0.003640576474687258 -0.002645033635316136 2.081668171172169e-17
    vertex -0.003943380060197382 -0.002167891533457726 2.081668171172169e-17
    vertex -0.003943380060197382 -0.002167891533457726 -0.04999999999999998
  endloop
endfacet
facet normal -0.844328 -0.535827 -0
  outer loop
    vertex -0.003640576474687258 -0.002645033635316136 2.081668171172169e-17
    vertex -0.003943380060197382 -0.002167891533457726 -0.04999999999999998
    vertex -0.003640576474687258 -0.002645033635316136 -0.04999999999999998
  endloop
endfacet
facet normal -0.770513 -0.637424 -0
  outer loop
    vertex -0.003640576474687258 -0.002645033635316136 2.081668171172169e-17
    vertex -0.003640576474687258 -0.002645033635316136 -0.04999999999999998
    vertex -0.003280358823396345 -0.003080461976679106 -0.04999999999999998
  endloop
endfacet
facet normal -0.770513 -0.637424 -0
  outer loop
    vertex -0.003280358823396345 -0.003080461976679106 2.081668171172169e-17
    vertex -0.003640576474687258 -0.002645033635316136 2.081668171172169e-17
    vertex -0.003280358823396345 -0.003080461976679106 -0.04999999999999998
  endloop
endfacet
facet normal -0.684547 -0.728969 0
  outer loop
    vertex -0.002868407953869096 -0.003467309592491057 2.081668171172169e-17
    vertex -0.003280358823396345 -0.003080461976679106 2.081668171172169e-17
    vertex -0.003280358823396345 -0.003080461976679106 -0.04999999999999998
  endloop
endfacet
facet normal -0.684547 -0.728969 -0
  outer loop
    vertex -0.002868407953869096 -0.003467309592491057 2.081668171172169e-17
    vertex -0.003280358823396345 -0.003080461976679106 -0.04999999999999998
    vertex -0.002868407953869096 -0.003467309592491057 -0.04999999999999998
  endloop
endfacet
facet normal -0.587785 -0.809017 -0
  outer loop
    vertex -0.002868407953869096 -0.003467309592491057 2.081668171172169e-17
    vertex -0.002868407953869096 -0.003467309592491057 -0.04999999999999998
    vertex -0.002411220577405476 -0.003799475664759073 -0.04999999999999998
  endloop
endfacet
facet normal -0.587785 -0.809017 -0
  outer loop
    vertex -0.002411220577405476 -0.003799475664759073 2.081668171172169e-17
    vertex -0.002868407953869096 -0.003467309592491057 2.081668171172169e-17
    vertex -0.002411220577405476 -0.003799475664759073 -0.04999999999999998
  endloop
endfacet
facet normal -0.481754 -0.876307 -0
  outer loop
    vertex -0.002411220577405476 -0.003799475664759073 2.081668171172169e-17
    vertex -0.002411220577405476 -0.003799475664759073 -0.04999999999999998
    vertex -0.001916006812042817 -0.004071721736097092 -0.04999999999999998
  endloop
endfacet
facet normal -0.481754 -0.876307 -0
  outer loop
    vertex -0.001916006812042817 -0.004071721736097092 2.081668171172169e-17
    vertex -0.002411220577405476 -0.003799475664759073 2.081668171172169e-17
    vertex -0.001916006812042817 -0.004071721736097092 -0.04999999999999998
  endloop
endfacet
facet normal -0.368125 -0.929776 0
  outer loop
    vertex -0.001390576474687253 -0.004279754323328194 2.081668171172169e-17
    vertex -0.001916006812042817 -0.004071721736097092 2.081668171172169e-17
    vertex -0.001916006812042817 -0.004071721736097092 -0.04999999999999998
  endloop
endfacet
facet normal -0.368125 -0.929776 -0
  outer loop
    vertex -0.001390576474687253 -0.004279754323328194 2.081668171172169e-17
    vertex -0.001916006812042817 -0.004071721736097092 -0.04999999999999998
    vertex -0.001390576474687253 -0.004279754323328194 -0.04999999999999998
  endloop
endfacet
facet normal -0.24869 -0.968583 0
  outer loop
    vertex -0.000843215915635749 -0.004420292628279101 2.081668171172169e-17
    vertex -0.001390576474687253 -0.004279754323328194 2.081668171172169e-17
    vertex -0.001390576474687253 -0.004279754323328194 -0.04999999999999998
  endloop
endfacet
facet normal -0.24869 -0.968583 -0
  outer loop
    vertex -0.000843215915635749 -0.004420292628279101 2.081668171172169e-17
    vertex -0.001390576474687253 -0.004279754323328194 -0.04999999999999998
    vertex -0.000843215915635749 -0.004420292628279101 -0.04999999999999998
  endloop
endfacet
facet normal -0.125333 -0.992115 0
  outer loop
    vertex -0.0002825573378818974 -0.004491120277927222 2.081668171172169e-17
    vertex -0.000843215915635749 -0.004420292628279101 2.081668171172169e-17
    vertex -0.000843215915635749 -0.004420292628279101 -0.04999999999999998
  endloop
endfacet
facet normal -0.125333 -0.992115 -0
  outer loop
    vertex -0.0002825573378818974 -0.004491120277927222 2.081668171172169e-17
    vertex -0.000843215915635749 -0.004420292628279101 -0.04999999999999998
    vertex -0.0002825573378818974 -0.004491120277927222 -0.04999999999999998
  endloop
endfacet
facet normal 3.06968e-15 -1 0
  outer loop
    vertex -0.0002825573378818974 -0.004491120277927222 2.081668171172169e-17
    vertex -0.0002825573378818974 -0.004491120277927222 -0.04999999999999998
    vertex 0.0002825573378819237 -0.004491120277927221 -0.04999999999999998
  endloop
endfacet
facet normal 3.06968e-15 -1 0
  outer loop
    vertex 0.0002825573378819237 -0.004491120277927221 2.081668171172169e-17
    vertex -0.0002825573378818974 -0.004491120277927222 2.081668171172169e-17
    vertex 0.0002825573378819237 -0.004491120277927221 -0.04999999999999998
  endloop
endfacet
facet normal 0.125333 -0.992115 0
  outer loop
    vertex 0.0008432159156357749 -0.004420292628279096 2.081668171172169e-17
    vertex 0.0002825573378819237 -0.004491120277927221 2.081668171172169e-17
    vertex 0.0002825573378819237 -0.004491120277927221 -0.04999999999999998
  endloop
endfacet
facet normal 0.125333 -0.992115 0
  outer loop
    vertex 0.0008432159156357749 -0.004420292628279096 2.081668171172169e-17
    vertex 0.0002825573378819237 -0.004491120277927221 -0.04999999999999998
    vertex 0.0008432159156357749 -0.004420292628279096 -0.04999999999999998
  endloop
endfacet
facet normal 0.24869 -0.968583 0
  outer loop
    vertex 0.0008432159156357749 -0.004420292628279096 2.081668171172169e-17
    vertex 0.0008432159156357749 -0.004420292628279096 -0.04999999999999998
    vertex 0.001390576474687278 -0.004279754323328186 -0.04999999999999998
  endloop
endfacet
facet normal 0.24869 -0.968583 0
  outer loop
    vertex 0.001390576474687278 -0.004279754323328186 2.081668171172169e-17
    vertex 0.0008432159156357749 -0.004420292628279096 2.081668171172169e-17
    vertex 0.001390576474687278 -0.004279754323328186 -0.04999999999999998
  endloop
endfacet
facet normal 0.368125 -0.929776 0
  outer loop
    vertex 0.001916006812042841 -0.004071721736097081 2.081668171172169e-17
    vertex 0.001390576474687278 -0.004279754323328186 2.081668171172169e-17
    vertex 0.001390576474687278 -0.004279754323328186 -0.04999999999999998
  endloop
endfacet
facet normal 0.368125 -0.929776 0
  outer loop
    vertex 0.001916006812042841 -0.004071721736097081 2.081668171172169e-17
    vertex 0.001390576474687278 -0.004279754323328186 -0.04999999999999998
    vertex 0.001916006812042841 -0.004071721736097081 -0.04999999999999998
  endloop
endfacet
facet normal 0.481754 -0.876307 0
  outer loop
    vertex 0.002411220577405499 -0.003799475664759059 2.081668171172169e-17
    vertex 0.001916006812042841 -0.004071721736097081 2.081668171172169e-17
    vertex 0.001916006812042841 -0.004071721736097081 -0.04999999999999998
  endloop
endfacet
facet normal 0.481754 -0.876307 0
  outer loop
    vertex 0.002411220577405499 -0.003799475664759059 2.081668171172169e-17
    vertex 0.001916006812042841 -0.004071721736097081 -0.04999999999999998
    vertex 0.002411220577405499 -0.003799475664759059 -0.04999999999999998
  endloop
endfacet
facet normal 0.587785 -0.809017 0
  outer loop
    vertex 0.002411220577405499 -0.003799475664759059 2.081668171172169e-17
    vertex 0.002411220577405499 -0.003799475664759059 -0.04999999999999998
    vertex 0.002868407953869117 -0.00346730959249104 -0.04999999999999998
  endloop
endfacet
facet normal 0.587785 -0.809017 0
  outer loop
    vertex 0.002868407953869117 -0.00346730959249104 2.081668171172169e-17
    vertex 0.002411220577405499 -0.003799475664759059 2.081668171172169e-17
    vertex 0.002868407953869117 -0.00346730959249104 -0.04999999999999998
  endloop
endfacet
facet normal 0.684547 -0.728969 0
  outer loop
    vertex 0.003280358823396364 -0.003080461976679086 2.081668171172169e-17
    vertex 0.002868407953869117 -0.00346730959249104 2.081668171172169e-17
    vertex 0.002868407953869117 -0.00346730959249104 -0.04999999999999998
  endloop
endfacet
facet normal 0.684547 -0.728969 0
  outer loop
    vertex 0.003280358823396364 -0.003080461976679086 2.081668171172169e-17
    vertex 0.002868407953869117 -0.00346730959249104 -0.04999999999999998
    vertex 0.003280358823396364 -0.003080461976679086 -0.04999999999999998
  endloop
endfacet
facet normal 0.770513 -0.637424 0
  outer loop
    vertex 0.003280358823396364 -0.003080461976679086 2.081668171172169e-17
    vertex 0.003280358823396364 -0.003080461976679086 -0.04999999999999998
    vertex 0.003640576474687274 -0.002645033635316113 -0.04999999999999998
  endloop
endfacet
facet normal 0.770513 -0.637424 0
  outer loop
    vertex 0.003640576474687274 -0.002645033635316113 2.081668171172169e-17
    vertex 0.003280358823396364 -0.003080461976679086 2.081668171172169e-17
    vertex 0.003640576474687274 -0.002645033635316113 -0.04999999999999998
  endloop
endfacet
facet normal 0.844328 -0.535827 0
  outer loop
    vertex 0.003943380060197395 -0.002167891533457701 2.081668171172169e-17
    vertex 0.003640576474687274 -0.002645033635316113 2.081668171172169e-17
    vertex 0.003640576474687274 -0.002645033635316113 -0.04999999999999998
  endloop
endfacet
facet normal 0.844328 -0.535827 0
  outer loop
    vertex 0.003943380060197395 -0.002167891533457701 2.081668171172169e-17
    vertex 0.003640576474687274 -0.002645033635316113 -0.04999999999999998
    vertex 0.003943380060197395 -0.002167891533457701 -0.04999999999999998
  endloop
endfacet
facet normal 0.904827 -0.425779 0
  outer loop
    vertex 0.004183994186497139 -0.001656560487081032 2.081668171172169e-17
    vertex 0.003943380060197395 -0.002167891533457701 2.081668171172169e-17
    vertex 0.003943380060197395 -0.002167891533457701 -0.04999999999999998
  endloop
endfacet
facet normal 0.904827 -0.425779 0
  outer loop
    vertex 0.004183994186497139 -0.001656560487081032 2.081668171172169e-17
    vertex 0.003943380060197395 -0.002167891533457701 -0.04999999999999998
    vertex 0.004183994186497139 -0.001656560487081032 -0.04999999999999998
  endloop
endfacet
facet normal 0.951057 -0.309017 0
  outer loop
    vertex 0.004183994186497139 -0.001656560487081032 2.081668171172169e-17
    vertex 0.004183994186497139 -0.001656560487081032 -0.04999999999999998
    vertex 0.004358624225078845 -0.001119104492241826 -0.04999999999999998
  endloop
endfacet
facet normal 0.951057 -0.309017 0
  outer loop
    vertex 0.004358624225078845 -0.001119104492241826 2.081668171172169e-17
    vertex 0.004183994186497139 -0.001656560487081032 2.081668171172169e-17
    vertex 0.004358624225078845 -0.001119104492241826 -0.04999999999999998
  endloop
endfacet
facet normal 0.982287 -0.187381 0
  outer loop
    vertex 0.004464516155915152 -0.0005639995510393471 2.081668171172169e-17
    vertex 0.004358624225078845 -0.001119104492241826 -0.04999999999999998
    vertex 0.004464516155915152 -0.0005639995510393471 -0.04999999999999998
  endloop
endfacet
facet normal 0.998027 -0.0627905 0
  outer loop
    vertex 0.004464516155915152 -0.0005639995510393471 2.081668171172169e-17
    vertex 0.004464516155915152 -0.0005639995510393471 -0.04999999999999998
    vertex 0.0045 -1.10214571844014e-18 -0.04999999999999998
  endloop
endfacet
facet normal 0.982287 -0.187381 0
  outer loop
    vertex 0.004464516155915152 -0.0005639995510393471 2.081668171172169e-17
    vertex 0.004358624225078845 -0.001119104492241826 2.081668171172169e-17
    vertex 0.004358624225078845 -0.001119104492241826 -0.04999999999999998
  endloop
endfacet
facet normal 0.998027 -0.0627905 0
  outer loop
    vertex 0.0045 -1.10214571844014e-18 2.081668171172169e-17
    vertex 0.004464516155915152 -0.0005639995510393471 2.081668171172169e-17
    vertex 0.0045 -1.10214571844014e-18 -0.04999999999999998
  endloop
endfacet
endsolid pipeOuterWall
