solid pipeInnerWall
facet normal -0.998027 -0.0627905 0
  outer loop
    vertex 0.002609261664457077 0.0003296264042741202 2.081668171172169e-17
    vertex 0.00263 0 -0.04999999999999998
    vertex 0.00263 0 2.081668171172169e-17
  endloop
endfacet
facet normal -0.998027 -0.0627905 -0
  outer loop
    vertex 0.002609261664457077 0.0003296264042741202 2.081668171172169e-17
    vertex 0.002609261664457077 0.0003296264042741202 -0.04999999999999998
    vertex 0.00263 0 -0.04999999999999998
  endloop
endfacet
facet normal -0.982287 -0.187381 0
  outer loop
    vertex 0.0025473737137683 0.0006540544032435681 2.081668171172169e-17
    vertex 0.002609261664457077 0.0003296264042741202 -0.04999999999999998
    vertex 0.002609261664457077 0.0003296264042741202 2.081668171172169e-17
  endloop
endfacet
facet normal -0.982287 -0.187381 -0
  outer loop
    vertex 0.0025473737137683 0.0006540544032435681 2.081668171172169e-17
    vertex 0.0025473737137683 0.0006540544032435681 -0.04999999999999998
    vertex 0.002609261664457077 0.0003296264042741202 -0.04999999999999998
  endloop
endfacet
facet normal -0.951057 -0.309017 0
  outer loop
    vertex 0.002445312157886101 0.0009681675735607031 2.081668171172169e-17
    vertex 0.0025473737137683 0.0006540544032435681 -0.04999999999999998
    vertex 0.0025473737137683 0.0006540544032435681 2.081668171172169e-17
  endloop
endfacet
facet normal -0.951057 -0.309017 -0
  outer loop
    vertex 0.002445312157886101 0.0009681675735607031 2.081668171172169e-17
    vertex 0.002445312157886101 0.0009681675735607031 -0.04999999999999998
    vertex 0.0025473737137683 0.0006540544032435681 -0.04999999999999998
  endloop
endfacet
facet normal -0.904827 -0.425779 0
  outer loop
    vertex 0.002304686568515361 0.001267012162887511 2.081668171172169e-17
    vertex 0.002445312157886101 0.0009681675735607031 -0.04999999999999998
    vertex 0.002445312157886101 0.0009681675735607031 2.081668171172169e-17
  endloop
endfacet
facet normal -0.904827 -0.425779 -0
  outer loop
    vertex 0.002304686568515361 0.001267012162887511 2.081668171172169e-17
    vertex 0.002304686568515361 0.001267012162887511 -0.04999999999999998
    vertex 0.002445312157886101 0.0009681675735607031 -0.04999999999999998
  endloop
endfacet
facet normal -0.844328 -0.535827 0
  outer loop
    vertex 0.002127714695206112 0.001545875213529204 2.081668171172169e-17
    vertex 0.002304686568515361 0.001267012162887511 -0.04999999999999998
    vertex 0.002304686568515361 0.001267012162887511 2.081668171172169e-17
  endloop
endfacet
facet normal -0.844328 -0.535827 -0
  outer loop
    vertex 0.002127714695206112 0.001545875213529204 2.081668171172169e-17
    vertex 0.002127714695206112 0.001545875213529204 -0.04999999999999998
    vertex 0.002304686568515361 0.001267012162887511 -0.04999999999999998
  endloop
endfacet
facet normal -0.770513 -0.637424 0
  outer loop
    vertex 0.001917187490118312 0.001800358888592451 2.081668171172169e-17
    vertex 0.002127714695206112 0.001545875213529204 -0.04999999999999998
    vertex 0.002127714695206112 0.001545875213529204 2.081668171172169e-17
  endloop
endfacet
facet normal -0.770513 -0.637424 -0
  outer loop
    vertex 0.001917187490118312 0.001800358888592451 2.081668171172169e-17
    vertex 0.001917187490118312 0.001800358888592451 -0.04999999999999998
    vertex 0.002127714695206112 0.001545875213529204 -0.04999999999999998
  endloop
endfacet
facet normal -0.684547 -0.728969 0
  outer loop
    vertex 0.001676425093039054 0.002026449828500325 2.081668171172169e-17
    vertex 0.001917187490118312 0.001800358888592451 -0.04999999999999998
    vertex 0.001917187490118312 0.001800358888592451 2.081668171172169e-17
  endloop
endfacet
facet normal -0.684547 -0.728969 -0
  outer loop
    vertex 0.001676425093039054 0.002026449828500325 2.081668171172169e-17
    vertex 0.001676425093039054 0.002026449828500325 -0.04999999999999998
    vertex 0.001917187490118312 0.001800358888592451 -0.04999999999999998
  endloop
endfacet
facet normal -0.587785 -0.809017 0
  outer loop
    vertex 0.001409224470794761 0.002220582444070299 2.081668171172169e-17
    vertex 0.001676425093039054 0.002026449828500325 -0.04999999999999998
    vertex 0.001676425093039054 0.002026449828500325 2.081668171172169e-17
  endloop
endfacet
facet normal -0.587785 -0.809017 -0
  outer loop
    vertex 0.001409224470794761 0.002220582444070299 2.081668171172169e-17
    vertex 0.001409224470794761 0.002220582444070299 -0.04999999999999998
    vertex 0.001676425093039054 0.002026449828500325 -0.04999999999999998
  endloop
endfacet
facet normal -0.481754 -0.876307 0
  outer loop
    vertex 0.001119799536816142 0.002379695147985631 2.081668171172169e-17
    vertex 0.001409224470794761 0.002220582444070299 -0.04999999999999998
    vertex 0.001409224470794761 0.002220582444070299 2.081668171172169e-17
  endloop
endfacet
facet normal -0.481754 -0.876307 -0
  outer loop
    vertex 0.001119799536816142 0.002379695147985631 2.081668171172169e-17
    vertex 0.001119799536816142 0.002379695147985631 -0.04999999999999998
    vertex 0.001409224470794761 0.002220582444070299 -0.04999999999999998
  endloop
endfacet
facet normal -0.368125 -0.929776 0
  outer loop
    vertex 0.0008127146952061124 0.002501278637856254 2.081668171172169e-17
    vertex 0.001119799536816142 0.002379695147985631 -0.04999999999999998
    vertex 0.001119799536816142 0.002379695147985631 2.081668171172169e-17
  endloop
endfacet
facet normal -0.368125 -0.929776 -0
  outer loop
    vertex 0.0008127146952061124 0.002501278637856254 2.081668171172169e-17
    vertex 0.0008127146952061124 0.002501278637856254 -0.04999999999999998
    vertex 0.001119799536816142 0.002379695147985631 -0.04999999999999998
  endloop
endfacet
facet normal -0.24869 -0.968583 0
  outer loop
    vertex 0.0004928128573604565 0.002583415469416451 2.081668171172169e-17
    vertex 0.0008127146952061124 0.002501278637856254 -0.04999999999999998
    vertex 0.0008127146952061124 0.002501278637856254 2.081668171172169e-17
  endloop
endfacet
facet normal -0.24869 -0.968583 -0
  outer loop
    vertex 0.0004928128573604565 0.002583415469416451 2.081668171172169e-17
    vertex 0.0004928128573604565 0.002583415469416451 -0.04999999999999998
    vertex 0.0008127146952061124 0.002501278637856254 -0.04999999999999998
  endloop
endfacet
facet normal -0.125333 -0.992115 0
  outer loop
    vertex 0.0001651390663620951 0.002624810295766354 2.081668171172169e-17
    vertex 0.0004928128573604565 0.002583415469416451 -0.04999999999999998
    vertex 0.0004928128573604565 0.002583415469416451 2.081668171172169e-17
  endloop
endfacet
facet normal -0.125333 -0.992115 -0
  outer loop
    vertex 0.0001651390663620951 0.002624810295766354 2.081668171172169e-17
    vertex 0.0001651390663620951 0.002624810295766354 -0.04999999999999998
    vertex 0.0004928128573604565 0.002583415469416451 -0.04999999999999998
  endloop
endfacet
facet normal 0 -1 0
  outer loop
    vertex -0.0001651390663620931 0.002624810295766354 2.081668171172169e-17
    vertex 0.0001651390663620951 0.002624810295766354 -0.04999999999999998
    vertex 0.0001651390663620951 0.002624810295766354 2.081668171172169e-17
  endloop
endfacet
facet normal 0 -1 0
  outer loop
    vertex -0.0001651390663620931 0.002624810295766354 2.081668171172169e-17
    vertex -0.0001651390663620931 0.002624810295766354 -0.04999999999999998
    vertex 0.0001651390663620951 0.002624810295766354 -0.04999999999999998
  endloop
endfacet
facet normal 0.125333 -0.992115 0
  outer loop
    vertex -0.0004928128573604546 0.002583415469416451 2.081668171172169e-17
    vertex -0.0001651390663620931 0.002624810295766354 -0.04999999999999998
    vertex -0.0001651390663620931 0.002624810295766354 2.081668171172169e-17
  endloop
endfacet
facet normal 0.125333 -0.992115 0
  outer loop
    vertex -0.0004928128573604546 0.002583415469416451 2.081668171172169e-17
    vertex -0.0004928128573604546 0.002583415469416451 -0.04999999999999998
    vertex -0.0001651390663620931 0.002624810295766354 -0.04999999999999998
  endloop
endfacet
facet normal 0.24869 -0.968583 0
  outer loop
    vertex -0.0008127146952061104 0.002501278637856254 2.081668171172169e-17
    vertex -0.0004928128573604546 0.002583415469416451 -0.04999999999999998
    vertex -0.0004928128573604546 0.002583415469416451 2.081668171172169e-17
  endloop
endfacet
facet normal 0.24869 -0.968583 0
  outer loop
    vertex -0.0008127146952061104 0.002501278637856254 2.081668171172169e-17
    vertex -0.0008127146952061104 0.002501278637856254 -0.04999999999999998
    vertex -0.0004928128573604546 0.002583415469416451 -0.04999999999999998
  endloop
endfacet
facet normal 0.368125 -0.929776 0
  outer loop
    vertex -0.00111979953681614 0.002379695147985632 2.081668171172169e-17
    vertex -0.00111979953681614 0.002379695147985632 -0.04999999999999998
    vertex -0.0008127146952061104 0.002501278637856254 -0.04999999999999998
  endloop
endfacet
facet normal 0.368125 -0.929776 0
  outer loop
    vertex -0.00111979953681614 0.002379695147985632 2.081668171172169e-17
    vertex -0.0008127146952061104 0.002501278637856254 -0.04999999999999998
    vertex -0.0008127146952061104 0.002501278637856254 2.081668171172169e-17
  endloop
endfacet
facet normal 0.481754 -0.876307 0
  outer loop
    vertex -0.001409224470794761 0.0022205824440703 2.081668171172169e-17
    vertex -0.001409224470794761 0.0022205824440703 -0.04999999999999998
    vertex -0.00111979953681614 0.002379695147985632 -0.04999999999999998
  endloop
endfacet
facet normal 0.481754 -0.876307 0
  outer loop
    vertex -0.001409224470794761 0.0022205824440703 2.081668171172169e-17
    vertex -0.00111979953681614 0.002379695147985632 -0.04999999999999998
    vertex -0.00111979953681614 0.002379695147985632 2.081668171172169e-17
  endloop
endfacet
facet normal 0.587785 -0.809017 0
  outer loop
    vertex -0.001676425093039054 0.002026449828500326 2.081668171172169e-17
    vertex -0.001676425093039054 0.002026449828500326 -0.04999999999999998
    vertex -0.001409224470794761 0.0022205824440703 -0.04999999999999998
  endloop
endfacet
facet normal 0.587785 -0.809017 0
  outer loop
    vertex -0.001676425093039054 0.002026449828500326 2.081668171172169e-17
    vertex -0.001409224470794761 0.0022205824440703 -0.04999999999999998
    vertex -0.001409224470794761 0.0022205824440703 2.081668171172169e-17
  endloop
endfacet
facet normal 0.684547 -0.728969 0
  outer loop
    vertex -0.001917187490118313 0.001800358888592451 2.081668171172169e-17
    vertex -0.001917187490118313 0.001800358888592451 -0.04999999999999998
    vertex -0.001676425093039054 0.002026449828500326 -0.04999999999999998
  endloop
endfacet
facet normal 0.684547 -0.728969 0
  outer loop
    vertex -0.001917187490118313 0.001800358888592451 2.081668171172169e-17
    vertex -0.001676425093039054 0.002026449828500326 -0.04999999999999998
    vertex -0.001676425093039054 0.002026449828500326 2.081668171172169e-17
  endloop
endfacet
facet normal 0.770513 -0.637424 0
  outer loop
    vertex -0.002127714695206112 0.001545875213529203 2.081668171172169e-17
    vertex -0.002127714695206112 0.001545875213529203 -0.04999999999999998
    vertex -0.001917187490118313 0.001800358888592451 -0.04999999999999998
  endloop
endfacet
facet normal 0.770513 -0.637424 0
  outer loop
    vertex -0.002127714695206112 0.001545875213529203 2.081668171172169e-17
    vertex -0.001917187490118313 0.001800358888592451 -0.04999999999999998
    vertex -0.001917187490118313 0.001800358888592451 2.081668171172169e-17
  endloop
endfacet
facet normal 0.844328 -0.535827 0
  outer loop
    vertex -0.002304686568515362 0.00126701216288751 2.081668171172169e-17
    vertex -0.002304686568515362 0.00126701216288751 -0.04999999999999998
    vertex -0.002127714695206112 0.001545875213529203 -0.04999999999999998
  endloop
endfacet
facet normal 0.844328 -0.535827 0
  outer loop
    vertex -0.002304686568515362 0.00126701216288751 2.081668171172169e-17
    vertex -0.002127714695206112 0.001545875213529203 -0.04999999999999998
    vertex -0.002127714695206112 0.001545875213529203 2.081668171172169e-17
  endloop
endfacet
facet normal 0.904827 -0.425779 0
  outer loop
    vertex -0.002445312157886102 0.0009681675735607013 2.081668171172169e-17
    vertex -0.002445312157886102 0.0009681675735607013 -0.04999999999999998
    vertex -0.002304686568515362 0.00126701216288751 -0.04999999999999998
  endloop
endfacet
facet normal 0.904827 -0.425779 0
  outer loop
    vertex -0.002445312157886102 0.0009681675735607013 2.081668171172169e-17
    vertex -0.002304686568515362 0.00126701216288751 -0.04999999999999998
    vertex -0.002304686568515362 0.00126701216288751 2.081668171172169e-17
  endloop
endfacet
facet normal 0.951057 -0.309017 0
  outer loop
    vertex -0.0025473737137683 0.0006540544032435659 2.081668171172169e-17
    vertex -0.0025473737137683 0.0006540544032435659 -0.04999999999999998
    vertex -0.002445312157886102 0.0009681675735607013 -0.04999999999999998
  endloop
endfacet
facet normal 0.951057 -0.309017 0
  outer loop
    vertex -0.0025473737137683 0.0006540544032435659 2.081668171172169e-17
    vertex -0.002445312157886102 0.0009681675735607013 -0.04999999999999998
    vertex -0.002445312157886102 0.0009681675735607013 2.081668171172169e-17
  endloop
endfacet
facet normal 0.982287 -0.187381 0
  outer loop
    vertex -0.002609261664457077 0.0003296264042741174 2.081668171172169e-17
    vertex -0.0025473737137683 0.0006540544032435659 -0.04999999999999998
    vertex -0.0025473737137683 0.0006540544032435659 2.081668171172169e-17
  endloop
endfacet
facet normal 0.982287 -0.187381 0
  outer loop
    vertex -0.002609261664457077 0.0003296264042741174 2.081668171172169e-17
    vertex -0.002609261664457077 0.0003296264042741174 -0.04999999999999998
    vertex -0.0025473737137683 0.0006540544032435659 -0.04999999999999998
  endloop
endfacet
facet normal 0.998027 -0.0627905 0
  outer loop
    vertex -0.00263 -3.181792394661709e-18 2.081668171172169e-17
    vertex -0.002609261664457077 0.0003296264042741174 -0.04999999999999998
    vertex -0.002609261664457077 0.0003296264042741174 2.081668171172169e-17
  endloop
endfacet
facet normal 0.998027 -0.0627905 0
  outer loop
    vertex -0.00263 -3.181792394661709e-18 2.081668171172169e-17
    vertex -0.00263 -3.181792394661709e-18 -0.04999999999999998
    vertex -0.002609261664457077 0.0003296264042741174 -0.04999999999999998
  endloop
endfacet
facet normal 0.998027 0.0627905 0
  outer loop
    vertex -0.002609261664457076 -0.0003296264042741237 2.081668171172169e-17
    vertex -0.00263 -3.181792394661709e-18 -0.04999999999999998
    vertex -0.00263 -3.181792394661709e-18 2.081668171172169e-17
  endloop
endfacet
facet normal 0.998027 0.0627905 0
  outer loop
    vertex -0.002609261664457076 -0.0003296264042741237 2.081668171172169e-17
    vertex -0.002609261664457076 -0.0003296264042741237 -0.04999999999999998
    vertex -0.00263 -3.181792394661709e-18 -0.04999999999999998
  endloop
endfacet
facet normal 0.982287 0.187381 0
  outer loop
    vertex -0.002547373713768299 -0.000654054403243572 2.081668171172169e-17
    vertex -0.002609261664457076 -0.0003296264042741237 -0.04999999999999998
    vertex -0.002609261664457076 -0.0003296264042741237 2.081668171172169e-17
  endloop
endfacet
facet normal 0.982287 0.187381 0
  outer loop
    vertex -0.002547373713768299 -0.000654054403243572 2.081668171172169e-17
    vertex -0.002547373713768299 -0.000654054403243572 -0.04999999999999998
    vertex -0.002609261664457076 -0.0003296264042741237 -0.04999999999999998
  endloop
endfacet
facet normal 0.951057 0.309017 0
  outer loop
    vertex -0.002445312157886099 -0.0009681675735607073 2.081668171172169e-17
    vertex -0.002547373713768299 -0.000654054403243572 -0.04999999999999998
    vertex -0.002547373713768299 -0.000654054403243572 2.081668171172169e-17
  endloop
endfacet
facet normal 0.951057 0.309017 0
  outer loop
    vertex -0.002445312157886099 -0.0009681675735607073 2.081668171172169e-17
    vertex -0.002445312157886099 -0.0009681675735607073 -0.04999999999999998
    vertex -0.002547373713768299 -0.000654054403243572 -0.04999999999999998
  endloop
endfacet
facet normal 0.904827 0.425779 0
  outer loop
    vertex -0.002304686568515359 -0.001267012162887515 2.081668171172169e-17
    vertex -0.002445312157886099 -0.0009681675735607073 -0.04999999999999998
    vertex -0.002445312157886099 -0.0009681675735607073 2.081668171172169e-17
  endloop
endfacet
facet normal 0.904827 0.425779 0
  outer loop
    vertex -0.002304686568515359 -0.001267012162887515 2.081668171172169e-17
    vertex -0.002304686568515359 -0.001267012162887515 -0.04999999999999998
    vertex -0.002445312157886099 -0.0009681675735607073 -0.04999999999999998
  endloop
endfacet
facet normal 0.844328 0.535827 0
  outer loop
    vertex -0.002127714695206109 -0.001545875213529209 2.081668171172169e-17
    vertex -0.002304686568515359 -0.001267012162887515 -0.04999999999999998
    vertex -0.002304686568515359 -0.001267012162887515 2.081668171172169e-17
  endloop
endfacet
facet normal 0.844328 0.535827 0
  outer loop
    vertex -0.002127714695206109 -0.001545875213529209 2.081668171172169e-17
    vertex -0.002127714695206109 -0.001545875213529209 -0.04999999999999998
    vertex -0.002304686568515359 -0.001267012162887515 -0.04999999999999998
  endloop
endfacet
facet normal 0.770513 0.637424 0
  outer loop
    vertex -0.001917187490118308 -0.001800358888592455 2.081668171172169e-17
    vertex -0.002127714695206109 -0.001545875213529209 -0.04999999999999998
    vertex -0.002127714695206109 -0.001545875213529209 2.081668171172169e-17
  endloop
endfacet
facet normal 0.770513 0.637424 0
  outer loop
    vertex -0.001917187490118308 -0.001800358888592455 2.081668171172169e-17
    vertex -0.001917187490118308 -0.001800358888592455 -0.04999999999999998
    vertex -0.002127714695206109 -0.001545875213529209 -0.04999999999999998
  endloop
endfacet
facet normal 0.684547 0.728969 0
  outer loop
    vertex -0.00167642509303905 -0.002026449828500329 2.081668171172169e-17
    vertex -0.001917187490118308 -0.001800358888592455 -0.04999999999999998
    vertex -0.001917187490118308 -0.001800358888592455 2.081668171172169e-17
  endloop
endfacet
facet normal 0.684547 0.728969 0
  outer loop
    vertex -0.00167642509303905 -0.002026449828500329 2.081668171172169e-17
    vertex -0.00167642509303905 -0.002026449828500329 -0.04999999999999998
    vertex -0.001917187490118308 -0.001800358888592455 -0.04999999999999998
  endloop
endfacet
facet normal 0.587785 0.809017 0
  outer loop
    vertex -0.00167642509303905 -0.002026449828500329 2.081668171172169e-17
    vertex -0.001409224470794756 -0.002220582444070303 -0.04999999999999998
    vertex -0.00167642509303905 -0.002026449828500329 -0.04999999999999998
  endloop
endfacet
facet normal 0.587785 0.809017 0
  outer loop
    vertex -0.001409224470794756 -0.002220582444070303 2.081668171172169e-17
    vertex -0.001409224470794756 -0.002220582444070303 -0.04999999999999998
    vertex -0.00167642509303905 -0.002026449828500329 2.081668171172169e-17
  endloop
endfacet
facet normal 0.481754 0.876307 0
  outer loop
    vertex -0.001119799536816135 -0.002379695147985634 2.081668171172169e-17
    vertex -0.001409224470794756 -0.002220582444070303 -0.04999999999999998
    vertex -0.001409224470794756 -0.002220582444070303 2.081668171172169e-17
  endloop
endfacet
facet normal 0.481754 0.876307 0
  outer loop
    vertex -0.001119799536816135 -0.002379695147985634 2.081668171172169e-17
    vertex -0.001119799536816135 -0.002379695147985634 -0.04999999999999998
    vertex -0.001409224470794756 -0.002220582444070303 -0.04999999999999998
  endloop
endfacet
facet normal 0.368125 0.929776 0
  outer loop
    vertex -0.001119799536816135 -0.002379695147985634 2.081668171172169e-17
    vertex -0.0008127146952061055 -0.002501278637856256 -0.04999999999999998
    vertex -0.001119799536816135 -0.002379695147985634 -0.04999999999999998
  endloop
endfacet
facet normal 0.368125 0.929776 0
  outer loop
    vertex -0.0008127146952061055 -0.002501278637856256 2.081668171172169e-17
    vertex -0.0008127146952061055 -0.002501278637856256 -0.04999999999999998
    vertex -0.001119799536816135 -0.002379695147985634 2.081668171172169e-17
  endloop
endfacet
facet normal 0.24869 0.968583 0
  outer loop
    vertex -0.0008127146952061055 -0.002501278637856256 2.081668171172169e-17
    vertex -0.0004928128573604489 -0.002583415469416452 -0.04999999999999998
    vertex -0.0008127146952061055 -0.002501278637856256 -0.04999999999999998
  endloop
endfacet
facet normal 0.24869 0.968583 0
  outer loop
    vertex -0.0004928128573604489 -0.002583415469416452 2.081668171172169e-17
    vertex -0.0004928128573604489 -0.002583415469416452 -0.04999999999999998
    vertex -0.0008127146952061055 -0.002501278637856256 2.081668171172169e-17
  endloop
endfacet
facet normal 0.125333 0.992115 0
  outer loop
    vertex -0.0004928128573604489 -0.002583415469416452 2.081668171172169e-17
    vertex -0.0001651390663620867 -0.002624810295766355 -0.04999999999999998
    vertex -0.0004928128573604489 -0.002583415469416452 -0.04999999999999998
  endloop
endfacet
facet normal 0.125333 0.992115 0
  outer loop
    vertex -0.0001651390663620867 -0.002624810295766355 2.081668171172169e-17
    vertex -0.0001651390663620867 -0.002624810295766355 -0.04999999999999998
    vertex -0.0004928128573604489 -0.002583415469416452 2.081668171172169e-17
  endloop
endfacet
facet normal -2.62616e-15 1 0
  outer loop
    vertex 0.0001651390663621021 -0.002624810295766354 2.081668171172169e-17
    vertex -0.0001651390663620867 -0.002624810295766355 -0.04999999999999998
    vertex -0.0001651390663620867 -0.002624810295766355 2.081668171172169e-17
  endloop
endfacet
facet normal -2.62616e-15 1 0
  outer loop
    vertex 0.0001651390663621021 -0.002624810295766354 2.081668171172169e-17
    vertex 0.0001651390663621021 -0.002624810295766354 -0.04999999999999998
    vertex -0.0001651390663620867 -0.002624810295766355 -0.04999999999999998
  endloop
endfacet
facet normal -0.125333 0.992115 0
  outer loop
    vertex 0.000492812857360464 -0.00258341546941645 2.081668171172169e-17
    vertex 0.0001651390663621021 -0.002624810295766354 -0.04999999999999998
    vertex 0.0001651390663621021 -0.002624810295766354 2.081668171172169e-17
  endloop
endfacet
facet normal -0.125333 0.992115 0
  outer loop
    vertex 0.000492812857360464 -0.00258341546941645 2.081668171172169e-17
    vertex 0.000492812857360464 -0.00258341546941645 -0.04999999999999998
    vertex 0.0001651390663621021 -0.002624810295766354 -0.04999999999999998
  endloop
endfacet
facet normal -0.24869 0.968583 0
  outer loop
    vertex 0.000492812857360464 -0.00258341546941645 2.081668171172169e-17
    vertex 0.0008127146952061201 -0.002501278637856251 -0.04999999999999998
    vertex 0.000492812857360464 -0.00258341546941645 -0.04999999999999998
  endloop
endfacet
facet normal -0.24869 0.968583 0
  outer loop
    vertex 0.0008127146952061201 -0.002501278637856251 2.081668171172169e-17
    vertex 0.0008127146952061201 -0.002501278637856251 -0.04999999999999998
    vertex 0.000492812857360464 -0.00258341546941645 2.081668171172169e-17
  endloop
endfacet
facet normal -0.368125 0.929776 0
  outer loop
    vertex 0.001119799536816149 -0.002379695147985627 2.081668171172169e-17
    vertex 0.0008127146952061201 -0.002501278637856251 -0.04999999999999998
    vertex 0.0008127146952061201 -0.002501278637856251 2.081668171172169e-17
  endloop
endfacet
facet normal -0.368125 0.929776 0
  outer loop
    vertex 0.001119799536816149 -0.002379695147985627 2.081668171172169e-17
    vertex 0.001119799536816149 -0.002379695147985627 -0.04999999999999998
    vertex 0.0008127146952061201 -0.002501278637856251 -0.04999999999999998
  endloop
endfacet
facet normal -0.481754 0.876307 0
  outer loop
    vertex 0.001119799536816149 -0.002379695147985627 2.081668171172169e-17
    vertex 0.001409224470794769 -0.002220582444070294 -0.04999999999999998
    vertex 0.001119799536816149 -0.002379695147985627 -0.04999999999999998
  endloop
endfacet
facet normal -0.481754 0.876307 0
  outer loop
    vertex 0.001409224470794769 -0.002220582444070294 2.081668171172169e-17
    vertex 0.001409224470794769 -0.002220582444070294 -0.04999999999999998
    vertex 0.001119799536816149 -0.002379695147985627 2.081668171172169e-17
  endloop
endfacet
facet normal -0.587785 0.809017 0
  outer loop
    vertex 0.001676425093039062 -0.002026449828500319 2.081668171172169e-17
    vertex 0.001409224470794769 -0.002220582444070294 -0.04999999999999998
    vertex 0.001409224470794769 -0.002220582444070294 2.081668171172169e-17
  endloop
endfacet
facet normal -0.587785 0.809017 0
  outer loop
    vertex 0.001676425093039062 -0.002026449828500319 2.081668171172169e-17
    vertex 0.001676425093039062 -0.002026449828500319 -0.04999999999999998
    vertex 0.001409224470794769 -0.002220582444070294 -0.04999999999999998
  endloop
endfacet
facet normal -0.684547 0.728969 0
  outer loop
    vertex 0.001676425093039062 -0.002026449828500319 2.081668171172169e-17
    vertex 0.00191718749011832 -0.001800358888592443 -0.04999999999999998
    vertex 0.001676425093039062 -0.002026449828500319 -0.04999999999999998
  endloop
endfacet
facet normal -0.684547 0.728969 0
  outer loop
    vertex 0.00191718749011832 -0.001800358888592443 2.081668171172169e-17
    vertex 0.00191718749011832 -0.001800358888592443 -0.04999999999999998
    vertex 0.001676425093039062 -0.002026449828500319 2.081668171172169e-17
  endloop
endfacet
facet normal -0.770513 0.637424 0
  outer loop
    vertex 0.002127714695206118 -0.001545875213529195 2.081668171172169e-17
    vertex 0.00191718749011832 -0.001800358888592443 -0.04999999999999998
    vertex 0.00191718749011832 -0.001800358888592443 2.081668171172169e-17
  endloop
endfacet
facet normal -0.770513 0.637424 0
  outer loop
    vertex 0.002127714695206118 -0.001545875213529195 2.081668171172169e-17
    vertex 0.002127714695206118 -0.001545875213529195 -0.04999999999999998
    vertex 0.00191718749011832 -0.001800358888592443 -0.04999999999999998
  endloop
endfacet
facet normal -0.844328 0.535827 0
  outer loop
    vertex 0.002127714695206118 -0.001545875213529195 2.081668171172169e-17
    vertex 0.002304686568515367 -0.001267012162887501 -0.04999999999999998
    vertex 0.002127714695206118 -0.001545875213529195 -0.04999999999999998
  endloop
endfacet
facet normal -0.844328 0.535827 0
  outer loop
    vertex 0.002304686568515367 -0.001267012162887501 2.081668171172169e-17
    vertex 0.002304686568515367 -0.001267012162887501 -0.04999999999999998
    vertex 0.002127714695206118 -0.001545875213529195 2.081668171172169e-17
  endloop
endfacet
facet normal -0.904827 0.425779 0
  outer loop
    vertex 0.002445312157886105 -0.0009681675735606918 2.081668171172169e-17
    vertex 0.002304686568515367 -0.001267012162887501 -0.04999999999999998
    vertex 0.002304686568515367 -0.001267012162887501 2.081668171172169e-17
  endloop
endfacet
facet normal -0.904827 0.425779 0
  outer loop
    vertex 0.002445312157886105 -0.0009681675735606918 2.081668171172169e-17
    vertex 0.002445312157886105 -0.0009681675735606918 -0.04999999999999998
    vertex 0.002304686568515367 -0.001267012162887501 -0.04999999999999998
  endloop
endfacet
facet normal -0.951057 0.309017 0
  outer loop
    vertex 0.002547373713768303 -0.000654054403243556 2.081668171172169e-17
    vertex 0.002547373713768303 -0.000654054403243556 -0.04999999999999998
    vertex 0.002445312157886105 -0.0009681675735606918 -0.04999999999999998
  endloop
endfacet
facet normal -0.951057 0.309017 0
  outer loop
    vertex 0.002547373713768303 -0.000654054403243556 2.081668171172169e-17
    vertex 0.002445312157886105 -0.0009681675735606918 -0.04999999999999998
    vertex 0.002445312157886105 -0.0009681675735606918 2.081668171172169e-17
  endloop
endfacet
facet normal -0.982287 0.187381 0
  outer loop
    vertex 0.002609261664457078 -0.0003296264042741074 2.081668171172169e-17
    vertex 0.002609261664457078 -0.0003296264042741074 -0.04999999999999998
    vertex 0.002547373713768303 -0.000654054403243556 -0.04999999999999998
  endloop
endfacet
facet normal -0.982287 0.187381 0
  outer loop
    vertex 0.002609261664457078 -0.0003296264042741074 2.081668171172169e-17
    vertex 0.002547373713768303 -0.000654054403243556 -0.04999999999999998
    vertex 0.002547373713768303 -0.000654054403243556 2.081668171172169e-17
  endloop
endfacet
facet normal -0.998027 0.0627905 0
  outer loop
    vertex 0.00263 0 2.081668171172169e-17
    vertex 0.00263 0 -0.04999999999999998
    vertex 0.002609261664457078 -0.0003296264042741074 -0.04999999999999998
  endloop
endfacet
facet normal -0.998027 0.0627905 0
  outer loop
    vertex 0.00263 0 2.081668171172169e-17
    vertex 0.002609261664457078 -0.0003296264042741074 -0.04999999999999998
    vertex 0.002609261664457078 -0.0003296264042741074 2.081668171172169e-17
  endloop
endfacet
endsolid pipeInnerWall
